<svg width="171" height="172" viewBox="0 0 171 172" fill="none" xmlns="http://www.w3.org/2000/svg">
<path d="M89.4754 0.461627L89.1693 4.63981L93.5565 4.94554L93.8626 0.767348L96.2093 0.971162L95.3931 11.8752L93.0464 11.6714L93.3525 6.98368L88.9652 6.67796L88.6592 11.3657L86.3125 11.1619L87.1287 0.257812L89.4754 0.461627Z" fill="white"/>
<path d="M109.782 3.82491L109.272 5.76114L103.763 4.33444L103.253 6.5764L108.354 7.79928L107.946 9.63361L102.844 8.41072L102.232 10.9584L107.946 12.3851L107.436 14.3213L99.2734 12.487L101.824 1.88867L109.782 3.82491Z" fill="white"/>
<path d="M116.928 6.37224L113.561 14.6267L118.458 16.6649L117.642 18.4992L110.5 15.5439L114.683 5.45508L116.928 6.37224Z" fill="white"/>
<path d="M128.144 11.7737L123.553 19.4167L128.144 22.1682L127.124 23.9006L120.492 19.9262L126.104 10.5508L128.144 11.7737Z" fill="white"/>
<path d="M134.476 19.6201C135.088 19.2125 135.803 19.0087 136.415 18.9068C137.129 18.8049 137.843 18.8049 138.455 19.0087C139.17 19.2125 139.782 19.6201 140.496 20.1297C141.108 20.6392 141.618 21.2506 141.924 21.964C142.231 22.5754 142.435 23.2888 142.435 24.0021C142.435 24.7155 142.333 25.4288 142.026 26.0403C141.72 26.7536 141.414 27.3651 140.802 27.9765C140.292 28.588 139.68 29.0975 139.068 29.4032C138.455 29.8108 137.741 30.0146 137.129 30.1166C136.415 30.2185 135.803 30.1166 135.088 29.9127C134.374 29.7089 133.762 29.3013 133.048 28.7918C132.436 28.2822 131.926 27.6708 131.62 27.0593C131.313 26.4479 131.109 25.7346 131.109 25.0212C131.109 24.3079 131.211 23.6964 131.415 22.9831C131.62 22.2697 132.028 21.6583 132.538 21.0468C133.252 20.5373 133.864 20.0278 134.476 19.6201ZM133.864 23.7983C133.66 24.2059 133.558 24.6136 133.456 25.0212C133.456 25.4288 133.456 25.8365 133.66 26.2441C133.864 26.6517 134.068 27.0593 134.476 27.3651C134.884 27.6708 135.293 27.9765 135.701 27.9765C136.109 28.0784 136.517 28.0784 136.925 27.9765C137.333 27.8746 137.741 27.6708 138.047 27.3651C138.455 27.0593 138.762 26.7536 139.068 26.4479C139.374 26.0403 139.68 25.7346 139.884 25.3269C140.088 24.9193 140.19 24.5117 140.292 24.104C140.292 23.6964 140.292 23.2888 140.088 22.8812C139.884 22.4735 139.68 22.0659 139.272 21.7602C138.864 21.4545 138.455 21.1487 138.047 21.1487C137.639 21.1487 137.231 21.0468 136.823 21.2506C136.415 21.4545 136.007 21.5564 135.701 21.8621C135.293 22.1678 134.986 22.4735 134.68 22.7793C134.272 22.9831 134.068 23.3907 133.864 23.7983Z" fill="white"/>
<path d="M155.491 36.8432C155.899 37.4546 156.205 38.0661 156.307 38.6775C156.511 39.2889 156.511 39.9004 156.409 40.5118C156.307 41.1233 156.001 41.7347 155.593 42.3462C155.185 42.9576 154.573 43.4671 153.859 43.9767C153.246 44.3843 152.532 44.7919 151.92 44.9957C151.206 45.1996 150.594 45.3015 149.982 45.1995C149.369 45.0976 148.757 44.8938 148.145 44.5881C147.533 44.2824 147.023 43.7729 146.513 43.0595L143.758 39.187L152.736 32.9707L155.491 36.8432ZM148.145 41.8366C148.349 42.1423 148.553 42.3462 148.859 42.55C149.165 42.7538 149.471 42.8557 149.778 42.9576C150.186 43.0595 150.492 42.9576 151.002 42.8557C151.41 42.7538 151.92 42.55 152.43 42.1423C152.838 41.8366 153.246 41.5309 153.553 41.1233C153.859 40.8175 154.063 40.4099 154.165 40.0023C154.267 39.5947 154.267 39.187 154.165 38.7794C154.063 38.3718 153.859 37.8622 153.553 37.4546L152.532 36.0279L146.921 40.0023L148.145 41.8366Z" fill="white"/>
<path d="M155.185 57.0194C154.165 56.6118 153.349 55.6946 152.737 54.3698C152.125 53.045 151.92 51.8221 152.227 50.8031C152.533 49.784 153.349 48.9687 154.675 48.3573L160.797 45.5039L161.817 47.644L155.696 50.4973C155.389 50.5993 155.185 50.8031 154.981 50.905C154.777 51.1088 154.573 51.3126 154.471 51.5164C154.369 51.7202 154.267 52.026 154.267 52.3317C154.267 52.6374 154.369 53.045 154.573 53.4527C154.981 54.2679 155.389 54.6755 155.798 54.7774C156.308 54.8794 156.92 54.7774 157.634 54.4717L163.756 51.6183L164.776 53.7584L158.654 56.6118C157.43 57.3251 156.206 57.427 155.185 57.0194Z" fill="white"/>
<path d="M165.799 66.7014C166.003 66.4976 166.105 66.2938 166.207 65.988C166.309 65.7842 166.411 65.4785 166.411 65.1728C166.411 64.8671 166.411 64.5613 166.309 64.3575C166.207 63.848 165.901 63.4404 165.697 63.1346C165.391 62.8289 165.085 62.6251 164.677 62.4213C164.268 62.3194 163.86 62.2175 163.35 62.2175C162.84 62.2175 162.432 62.3194 161.922 62.4213C161.514 62.5232 161.106 62.727 160.697 62.9308C160.289 63.1346 159.983 63.4404 159.677 63.7461C159.371 64.0518 159.167 64.4594 159.065 64.8671C158.963 65.2747 158.963 65.7842 159.167 66.2938C159.371 67.0071 159.677 67.5167 160.289 67.8224C160.799 68.1281 161.514 68.23 162.228 68.1281L162.84 70.37C162.126 70.472 161.514 70.472 160.901 70.37C160.289 70.2681 159.779 70.0643 159.269 69.7586C158.759 69.4529 158.351 69.0453 158.045 68.5357C157.739 68.0262 157.433 67.5167 157.228 66.8033C157.024 65.988 156.922 65.2747 157.024 64.5613C157.126 63.848 157.33 63.2366 157.739 62.6251C158.147 62.0137 158.555 61.606 159.167 61.0965C159.779 60.6889 160.493 60.3832 161.208 60.1793C162.024 59.9755 162.738 59.8736 163.452 59.9755C164.166 60.0774 164.881 60.1793 165.493 60.4851C166.105 60.7908 166.615 61.1984 167.125 61.8099C167.635 62.4213 167.941 63.0327 168.146 63.848C168.35 64.4594 168.35 64.969 168.35 65.5804C168.35 66.1919 168.248 66.7014 167.941 67.2109C167.737 67.7205 167.431 68.1281 167.023 68.5357C166.615 68.9433 166.105 69.2491 165.493 69.4529L164.881 67.2109C165.391 67.0071 165.595 66.9052 165.799 66.7014Z" fill="white"/>
<path d="M170.386 76.0759L165.897 76.4836L170.794 80.356L171.1 83.3113L166.407 79.4389L160.285 84.6361L159.979 81.6808L164.571 78.0122L163.04 76.7893L159.571 77.095L159.367 74.7511L170.284 73.834L170.386 76.0759Z" fill="white"/>
<path d="M165.797 101.86L162.328 101.248L162.94 97.6816L166.409 98.2931L165.797 101.86Z" fill="white"/>
<path d="M156.002 117.246C155.696 117.246 155.492 117.348 155.186 117.45C154.982 117.552 154.778 117.755 154.574 117.959C154.37 118.163 154.166 118.469 154.064 118.774C153.962 118.978 153.86 119.182 153.86 119.386C153.758 119.59 153.758 119.895 153.758 120.099C153.758 120.303 153.758 120.507 153.86 120.813C153.962 121.016 154.166 121.22 154.37 121.322C154.676 121.424 154.88 121.424 155.186 121.424C155.39 121.322 155.696 121.22 155.9 120.915C156.104 120.711 156.41 120.405 156.615 120.099C156.819 119.794 157.125 119.488 157.431 119.182C157.737 118.876 157.941 118.571 158.247 118.265C158.553 117.959 158.859 117.755 159.165 117.552C159.471 117.348 159.879 117.246 160.288 117.246C160.696 117.246 161.104 117.348 161.512 117.552C162.022 117.755 162.43 118.061 162.634 118.469C162.94 118.876 163.042 119.284 163.144 119.794C163.246 120.303 163.246 120.711 163.144 121.22C163.042 121.73 162.94 122.137 162.736 122.647C162.532 123.156 162.226 123.666 161.818 124.074C161.512 124.481 161.104 124.787 160.696 125.093C160.288 125.297 159.777 125.5 159.267 125.5C158.757 125.5 158.247 125.398 157.635 125.093L158.655 122.953C158.961 123.055 159.267 123.156 159.471 123.156C159.675 123.156 159.981 123.055 160.083 122.953C160.288 122.851 160.492 122.647 160.594 122.443C160.798 122.239 160.9 122.035 161.002 121.73C161.104 121.526 161.104 121.322 161.206 121.22C161.206 121.016 161.308 120.813 161.206 120.609C161.206 120.405 161.104 120.201 161.002 120.099C160.9 119.895 160.798 119.794 160.594 119.692C160.39 119.59 160.186 119.59 160.083 119.59C159.879 119.59 159.777 119.692 159.573 119.895C159.369 120.099 159.165 120.303 158.859 120.609C158.553 120.915 158.247 121.424 157.737 121.934C157.635 122.137 157.431 122.341 157.125 122.647C156.819 122.953 156.513 123.156 156.206 123.36C155.798 123.564 155.39 123.768 154.982 123.768C154.472 123.87 153.962 123.768 153.452 123.462C153.044 123.258 152.635 122.953 152.329 122.647C152.023 122.239 151.819 121.832 151.717 121.424C151.615 120.915 151.615 120.405 151.717 119.794C151.819 119.182 152.023 118.571 152.329 117.959C152.635 117.45 152.941 116.94 153.248 116.431C153.656 116.023 154.064 115.615 154.472 115.412C154.982 115.208 155.492 115.004 156.002 115.004C156.512 115.004 157.125 115.106 157.737 115.412L156.717 117.552C156.615 117.348 156.308 117.246 156.002 117.246Z" fill="white"/>
<path d="M156.915 129.17L158.548 130.291L153.548 137.628L151.916 136.507L153.752 133.857L146.406 128.864L147.733 126.928L155.079 131.921L156.915 129.17Z" fill="white"/>
<path d="M147.838 144.151L137.023 139.871L138.656 138.036L141.003 139.055L143.757 135.998L142.533 133.756L144.165 131.922L149.471 142.316L147.838 144.151ZM142.839 139.667L146.716 141.297L144.676 137.527L142.839 139.667Z" fill="white"/>
<path d="M137.224 153.73C136.815 154.035 136.407 154.239 135.999 154.341C135.591 154.443 135.183 154.545 134.775 154.443C134.367 154.443 134.061 154.239 133.653 154.137C133.346 153.933 133.04 153.73 132.734 153.322C132.326 152.812 132.122 152.303 132.02 151.793C131.918 151.284 132.02 150.672 132.428 150.163C132.122 150.265 131.918 150.367 131.612 150.367C131.306 150.367 131.102 150.265 130.898 150.163C130.694 150.061 130.388 149.959 130.184 149.755C129.979 149.551 129.775 149.348 129.571 149.144C129.469 149.042 129.367 148.838 129.163 148.634C129.061 148.43 128.857 148.328 128.653 148.125C128.449 147.921 128.347 147.819 128.143 147.615C127.939 147.513 127.735 147.411 127.633 147.309L129.469 145.781C129.775 145.985 130.082 146.29 130.388 146.596C130.694 146.902 131 147.309 131.306 147.615C131.714 148.023 132.122 148.227 132.53 148.227C132.938 148.227 133.346 148.125 133.755 147.717L135.591 146.188L132.938 142.825L134.775 141.297L141.509 149.857L137.224 153.73ZM134.775 149.348C134.367 149.653 134.061 150.061 134.061 150.367C133.959 150.774 134.163 151.08 134.469 151.589C134.775 151.997 135.183 152.201 135.489 152.201C135.897 152.201 136.203 152.099 136.713 151.691L138.754 150.061L136.815 147.615L134.775 149.348Z" fill="white"/>
<path d="M130.081 156.378L131.102 158.111L123.348 162.493L122.327 160.76L125.184 159.13L120.797 151.385L122.939 150.162L127.327 157.907L130.081 156.378Z" fill="white"/>
<path d="M107.74 168.2C107.026 168.404 106.414 168.404 105.802 168.404C105.19 168.302 104.577 168.2 104.067 167.792C103.557 167.487 103.047 166.977 102.639 166.468C102.231 165.856 101.925 165.143 101.619 164.328C101.415 163.512 101.312 162.799 101.312 162.086C101.312 161.372 101.517 160.761 101.721 160.149C102.027 159.538 102.435 159.028 102.945 158.621C103.455 158.213 104.169 157.908 104.986 157.602L109.577 156.379L112.434 166.875L107.74 168.2ZM105.598 159.64C105.292 159.742 104.986 159.844 104.679 160.048C104.373 160.251 104.169 160.455 103.965 160.863C103.761 161.169 103.659 161.576 103.659 161.984C103.659 162.391 103.659 162.901 103.863 163.512C103.965 164.022 104.169 164.531 104.373 164.939C104.577 165.347 104.883 165.652 105.19 165.856C105.496 166.06 105.904 166.264 106.312 166.264C106.72 166.366 107.23 166.264 107.842 166.162L109.475 165.754L107.638 159.13L105.598 159.64Z" fill="white"/>
<path d="M88.864 161.067C89.5782 160.252 90.7006 159.844 92.129 159.64C93.5574 159.538 94.7817 159.742 95.5979 160.354C96.5162 160.965 96.9243 162.086 97.1284 163.513L97.7405 170.239L95.3939 170.442L94.7817 163.717C94.7817 163.411 94.6797 163.105 94.5776 162.901C94.4756 162.596 94.3736 162.392 94.1695 162.188C93.9655 161.984 93.7614 161.78 93.4553 161.678C93.1492 161.576 92.7411 161.577 92.231 161.577C91.4148 161.678 90.8026 161.882 90.4965 162.29C90.1904 162.697 90.0884 163.309 90.1904 164.124L90.8026 170.85L88.4559 171.054L87.8438 164.328C87.8438 163.003 88.1498 161.882 88.864 161.067Z" fill="white"/>
<path d="M76.1114 167.793C76.2134 167.996 76.4174 168.2 76.6215 168.404C76.8256 168.608 77.0296 168.71 77.3357 168.914C77.6418 169.016 77.8458 169.117 78.1519 169.117C78.6621 169.117 79.1722 169.117 79.5803 168.914C79.9884 168.71 80.2945 168.506 80.6006 168.2C80.9067 167.895 81.1108 167.487 81.2128 167.079C81.3148 166.672 81.4168 166.162 81.5189 165.755C81.5189 165.347 81.5189 164.837 81.5189 164.43C81.4168 164.022 81.3148 163.614 81.1108 163.207C80.9067 162.799 80.6006 162.494 80.2945 162.29C79.8864 162.086 79.4783 161.882 78.9682 161.882C78.254 161.78 77.6418 161.984 77.2337 162.392C76.8255 162.799 76.5195 163.411 76.3154 164.124L73.9688 163.92C74.0708 163.207 74.2748 162.595 74.5809 162.086C74.887 161.576 75.2951 161.169 75.7032 160.761C76.1113 160.455 76.6215 160.15 77.2337 160.048C77.8458 159.844 78.458 159.844 79.0702 159.946C79.8864 160.048 80.6006 160.252 81.3148 160.557C81.927 160.863 82.4371 161.373 82.9473 161.882C83.3554 162.392 83.6615 163.003 83.8655 163.716C84.0696 164.43 84.0696 165.143 84.0696 165.958C83.9676 166.774 83.8655 167.487 83.5594 168.2C83.2534 168.914 82.8452 169.423 82.3351 169.933C81.825 170.442 81.2128 170.748 80.6006 171.054C79.8864 171.258 79.1722 171.359 78.356 171.359C77.7438 171.359 77.2337 171.156 76.7235 170.952C76.2134 170.748 75.7032 170.442 75.3972 170.035C74.989 169.627 74.683 169.219 74.4789 168.71C74.2748 168.2 74.0708 167.589 74.0708 166.977L76.4174 167.181C75.9073 167.283 76.0093 167.589 76.1114 167.793Z" fill="white"/>
<path d="M65.8056 168.915L66.9279 164.533L61.6224 167.794L58.7656 167.081L63.9691 164.024L61.1123 156.482L64.0711 157.196L66.0097 162.801L67.6421 161.782L68.5604 158.419L70.907 159.03L68.1523 169.527L65.8056 168.915Z" fill="white"/>
<path d="M43.1562 155.87L44.8907 152.812L48.0536 154.647L46.3191 157.704L43.1562 155.87Z" fill="white"/>
<path d="M29.4833 135.182L25.3001 141.602L31.932 137.832L33.5644 139.564L27.5447 149.143L25.9123 147.411L30.1975 141.093L23.4636 144.761L21.9332 143.131L26.1163 136.609L19.3825 140.379L17.75 138.647L27.7488 133.348L29.4833 135.182Z" fill="white"/>
<path d="M13.8757 132.635L17.4467 130.393L15.1 126.622L11.529 128.864L10.3047 126.826L19.5893 121.119L20.8136 123.157L16.8345 125.603L19.1812 129.374L23.1603 126.928L24.3846 128.966L15.1 134.673L13.8757 132.635Z" fill="white"/>
<path d="M5.71094 116.737L14.2813 108.891L15.1996 111.234L13.2611 112.865L14.7915 116.636L17.3422 116.534L18.2605 118.776L6.6292 119.081L5.71094 116.737ZM11.8327 114.088L8.66977 116.839L12.955 116.636L11.8327 114.088Z" fill="white"/>
<path d="M5.51083 110.623L3.57229 111.133L1.42969 102.47L3.36823 101.961L4.18446 105.12L12.8569 102.98L13.4691 105.324L4.79663 107.464L5.51083 110.623Z" fill="white"/>
<path d="M8.67091 95.2346C8.87496 95.0308 9.07902 94.827 9.18105 94.6232C9.28308 94.4193 9.38511 94.1136 9.48714 93.8079C9.48714 93.5022 9.58916 93.1965 9.48714 92.8907C9.48714 92.6869 9.38511 92.4831 9.38511 92.1774C9.38511 91.9736 9.28308 91.7698 9.18105 91.5659C9.07902 91.3621 8.87496 91.1583 8.67091 91.0564C8.46685 90.9545 8.26279 90.8526 7.95671 90.9545C7.65062 90.9545 7.44656 91.0564 7.24251 91.2602C7.03845 91.464 6.93642 91.7698 6.83439 92.0755C6.73236 92.3812 6.63033 92.7888 6.63033 93.0945C6.52831 93.5022 6.52831 93.9098 6.42628 94.3174C6.32425 94.7251 6.32425 95.1327 6.12019 95.5403C6.01816 95.9479 5.8141 96.2537 5.61005 96.6613C5.40599 96.967 5.0999 97.2727 4.79382 97.4766C4.48773 97.6804 4.07962 97.7823 3.56947 97.8842C3.05933 97.9861 2.54919 97.8842 2.03904 97.6804C1.63093 97.4765 1.22281 97.1708 0.916729 96.8651C0.610643 96.4575 0.406586 96.0498 0.202528 95.6422C0.202528 95.0308 0.1005 94.5212 -0.00152893 94.1136C-0.103558 93.5022 -0.00152893 92.9926 -0.00152893 92.4831C0.1005 91.9736 0.202528 91.464 0.508614 91.0564C0.712672 90.6488 1.12079 90.2411 1.5289 90.0373C1.93702 89.7316 2.44716 89.6297 3.05933 89.5278L3.26339 91.8717C2.9573 91.8717 2.65122 91.9736 2.44716 92.1774C2.2431 92.2793 2.14107 92.4831 2.03904 92.6869C1.93702 92.8907 1.83499 93.0945 1.83499 93.4003C1.83499 93.6041 1.83499 93.9098 1.83499 94.2155C1.83499 94.4193 1.93702 94.6232 1.93702 94.827C1.93702 95.0308 2.03904 95.1327 2.2431 95.3365C2.34513 95.4384 2.44716 95.6422 2.65122 95.6422C2.85527 95.7441 3.05933 95.7441 3.26339 95.7441C3.46745 95.7441 3.6715 95.6422 3.77353 95.5403C3.87556 95.4384 3.97759 95.2346 4.07962 95.0308C4.18165 94.827 4.28367 94.4193 4.28367 94.0117C4.3857 93.6041 4.48773 92.9926 4.58976 92.2793C4.58976 92.0755 4.69179 91.7698 4.69179 91.464C4.79382 91.0564 4.89585 90.7507 5.0999 90.3431C5.30396 89.9354 5.61005 89.6297 5.91613 89.324C6.32425 89.0183 6.73236 88.8145 7.34453 88.8145C7.85468 88.8145 8.26279 88.8145 8.77294 89.0183C9.18105 89.1202 9.58916 89.4259 9.99728 89.7316C10.3034 90.0373 10.6095 90.5469 10.8135 91.0564C11.0176 91.5659 11.2216 92.2793 11.2216 92.9926C11.3237 93.6041 11.2216 94.2155 11.1196 94.7251C11.0176 95.3365 10.8135 95.846 10.6095 96.2537C10.3034 96.7632 9.99728 97.0689 9.48714 97.3746C8.97699 97.6804 8.46685 97.8842 7.75265 97.8842L7.54859 95.5403C8.16076 95.4384 8.46685 95.3365 8.67091 95.2346Z" fill="white"/>
<path d="M11.3247 70.8797C11.9369 71.7969 12.1409 73.0198 11.8349 74.4465C11.6308 75.8732 11.1207 76.9941 10.3044 77.7075C9.4882 78.4208 8.36588 78.6246 6.83545 78.4208L0.101562 77.4018L0.509677 75.0579L7.24357 76.077C7.54965 76.077 7.85574 76.1789 8.16183 76.1789C8.46791 76.1789 8.67197 76.077 8.97805 75.9751C9.18211 75.8732 9.38617 75.6693 9.59023 75.3636C9.79428 75.0579 9.89631 74.7522 9.99834 74.2426C10.1004 73.4274 9.99834 72.8159 9.69226 72.4083C9.38617 72.0007 8.774 71.7969 7.95777 71.695L1.22388 70.6759L1.63199 68.332L8.36588 69.3511C9.79428 69.453 10.8146 69.9625 11.3247 70.8797Z" fill="white"/>
<path d="M4.48355 58.1418C4.68761 57.5303 4.9937 57.0208 5.29978 56.6132C5.60587 56.2055 6.01398 55.8998 6.4221 55.7979C6.83021 55.5941 7.23833 55.4922 7.64644 55.4922C8.05456 55.4922 8.5647 55.5941 8.97282 55.696C9.38093 55.7979 9.78904 56.0017 10.0951 56.3074C10.5032 56.6132 10.7073 56.9189 10.9114 57.3265C11.1154 57.7341 11.2174 58.1418 11.3195 58.6513C11.3195 59.1608 11.3195 59.7723 11.0134 60.3837L10.1972 62.7276L13.8702 63.9505L13.258 66.1924L2.95312 62.7276L4.48355 58.1418ZM9.17687 60.3837C9.2789 60.078 9.2789 59.8742 9.38093 59.5685C9.38093 59.3647 9.38093 59.0589 9.38093 58.8551C9.38093 58.6513 9.17687 58.4475 9.07484 58.2437C8.87079 58.0399 8.66673 57.938 8.36064 57.836C8.05456 57.7341 7.74847 57.7341 7.54441 57.7341C7.34036 57.7341 7.1363 57.836 6.93224 58.0399C6.72818 58.1418 6.62616 58.3456 6.52413 58.6513C6.4221 58.8551 6.32007 59.1608 6.21804 59.3647L5.60587 61.0971L8.66673 62.1161L9.17687 60.3837Z" fill="white"/>
<path d="M13.4648 39.5938C13.8729 38.9823 14.281 38.4728 14.7912 38.1671C15.3013 37.7594 15.9135 37.5556 16.5256 37.3518C17.1378 37.2499 17.75 37.2499 18.4642 37.3518C19.1784 37.4537 19.8926 37.8614 20.7088 38.269C21.423 38.6766 21.9332 39.1861 22.4433 39.6957C22.8514 40.2052 23.2595 40.8167 23.3616 41.4281C23.5656 42.0395 23.5656 42.651 23.4636 43.3643C23.3616 44.0777 23.0555 44.6891 22.6474 45.4025L20.0966 49.3768L10.9141 43.4662L13.4648 39.5938ZM20.8108 44.4853C21.0149 44.1796 21.1169 43.8739 21.219 43.5681C21.321 43.2624 21.321 42.8548 21.219 42.5491C21.1169 42.2434 20.9129 41.8357 20.7088 41.53C20.4027 41.2243 20.0966 40.8167 19.5865 40.5109C19.0764 40.2052 18.6682 40.0014 18.2601 39.7976C17.852 39.6957 17.4439 39.5938 17.0358 39.5938C16.6277 39.5938 16.2196 39.7976 15.9135 40.0014C15.5054 40.2052 15.1993 40.6128 14.8932 41.1224L13.9749 42.5491L19.7906 46.2177L20.8108 44.4853Z" fill="white"/>
<path d="M32.2384 32.2563C32.2384 33.3773 31.7283 34.3964 30.708 35.5173C29.6877 36.6383 28.6674 37.2498 27.5451 37.3517C26.5248 37.3517 25.4025 36.944 24.3822 35.925L19.3828 31.3391L21.0153 29.6067L26.0147 34.1925C26.2187 34.3964 26.4228 34.6002 26.7289 34.7021C26.9329 34.9059 27.239 34.9059 27.5451 35.0078C27.8512 35.0078 28.0552 35.0078 28.3613 34.9059C28.6674 34.804 28.9735 34.4983 29.2796 34.1925C29.8918 33.5811 30.0958 32.9697 30.0958 32.4601C29.9938 31.9506 29.6877 31.4411 29.0755 30.9315L24.0761 26.3457L25.7086 24.6133L30.708 29.1991C31.7283 30.1163 32.2384 31.1353 32.2384 32.2563Z" fill="white"/>
<path d="M37.1355 18.7032C36.9314 18.6013 36.6253 18.6013 36.4213 18.6013C36.1152 18.6013 35.9111 18.6013 35.6051 18.7032C35.299 18.8051 35.0949 18.9071 34.8908 19.1109C34.4827 19.4166 34.1766 19.8242 33.9726 20.2318C33.7685 20.6395 33.7685 21.0471 33.7685 21.4547C33.7685 21.8624 33.8706 22.27 34.0746 22.6776C34.2787 23.0852 34.4827 23.4929 34.7888 23.9005C35.0949 24.3081 35.401 24.6138 35.7071 24.8177C36.0132 25.1234 36.4213 25.3272 36.8294 25.4291C37.2375 25.531 37.6456 25.6329 38.0537 25.531C38.4618 25.4291 38.87 25.2253 39.3801 24.9196C39.9923 24.5119 40.2984 23.9005 40.2984 23.391C40.4004 22.7795 40.1963 22.1681 39.7882 21.5566L41.6247 20.1299C42.0329 20.7414 42.2369 21.2509 42.3389 21.8624C42.441 22.4738 42.441 22.9833 42.441 23.5948C42.3389 24.1043 42.1349 24.7158 41.8288 25.2253C41.5227 25.7348 41.1146 26.1424 40.5024 26.5501C39.7882 27.0596 39.1761 27.3653 38.4619 27.5691C37.7477 27.773 37.0335 27.773 36.4213 27.6711C35.7071 27.5691 35.0949 27.2634 34.4827 26.8558C33.8706 26.4482 33.3604 25.9386 32.8503 25.3272C32.3401 24.7158 32.034 24.0024 31.728 23.2891C31.5239 22.5757 31.4219 21.8624 31.4219 21.2509C31.4219 20.5376 31.6259 19.9261 32.034 19.2128C32.3401 18.6013 32.8503 17.9899 33.5645 17.4804C34.0746 17.0727 34.5848 16.8689 35.0949 16.6651C35.6051 16.4613 36.1152 16.3594 36.7274 16.3594C37.2375 16.3594 37.7477 16.4613 38.2578 16.6651C38.7679 16.8689 39.2781 17.2765 39.6862 17.6842L37.8497 19.1109C37.6456 19.009 37.4416 18.8051 37.1355 18.7032Z" fill="white"/>
<path d="M44.0718 10.957L46.1124 14.9314L47.8469 8.91889L50.4996 7.49219L48.6631 13.3009L55.9071 16.9695L53.2544 18.3962L48.0509 15.5428L47.4388 17.3772L49.0712 20.5363L47.0307 21.6573L42.0312 11.9761L44.0718 10.957Z" fill="white"/>
<path d="M69.6877 5.35352L70.4019 8.81835L66.9329 9.5317L66.2188 6.06686L69.6877 5.35352Z" fill="white"/>
</svg>