<svg width="81" height="48" viewBox="0 0 81 48" fill="none" xmlns="http://www.w3.org/2000/svg">
<g clip-path="url(#clip0_462_162)">
<rect x="2.40234" y="-14.3999" width="76.894" height="76.8" fill="black"/>
<path d="M73.1052 16.3222C72.4287 13.9908 71.3463 11.6594 69.9933 9.60221C68.6403 7.68221 66.8814 6.03649 64.9872 4.66507C62.9576 3.29364 60.6575 2.1965 58.2221 1.64792C55.5161 0.96221 52.6747 0.550781 49.8334 0.550781L27.7793 0.550781L27.7793 48.0022H49.8334C52.6747 48.0022 55.5161 47.7279 58.2221 47.0422C60.6575 46.3565 62.9576 45.3965 64.9872 44.0251C67.0167 42.7908 68.6403 41.1451 69.9933 39.2251C71.3463 37.1679 72.4287 34.9736 73.1052 32.6422C73.7817 30.0365 74.1876 27.2936 74.1876 24.5508C74.1876 21.8079 73.7817 19.0651 73.1052 16.3222Z" fill="#EEA030"/>
<path d="M14.2359 4.52734C10.9887 4.52734 8.41797 7.13306 8.41797 10.4245C8.41797 13.7159 10.9887 16.3216 14.2359 16.3216C17.4831 16.3216 20.0539 13.7159 20.0539 10.4245C20.0539 7.13306 17.4831 4.52734 14.2359 4.52734Z" fill="#E7E8E9"/>
<path d="M14.2359 31.8164C10.9887 31.8164 8.41797 34.4221 8.41797 37.7135C8.41797 41.005 10.9887 43.6107 14.2359 43.6107C17.4831 43.6107 20.0539 41.005 20.0539 37.7135C20.0539 34.4221 17.4831 31.8164 14.2359 31.8164Z" fill="#E7E8E9"/>
</g>
<defs>
<clipPath id="clip0_462_162">
<rect width="80.8989" height="48" fill="white"/>
</clipPath>
</defs>
</svg>
