<svg width="307" height="100" viewBox="0 0 307 100" fill="none" xmlns="http://www.w3.org/2000/svg">
<g clip-path="url(#clip0_1_2)">
<rect width="307" height="100" fill="white"/>
<path d="M9.5 56L21.7 28.1H15.5V21H50.25L65.45 56H51.95L39.75 28.1H35.25L23.05 56H9.5ZM70.4453 56V21H122.395V56H70.4453ZM83.4953 48.9H109.345V28.1H83.4953V48.9ZM127.408 28.1V21H186.808V33.9L173.758 32.1V28.1H147.908V48.9H173.758V44.9L186.808 43.1V56H134.858V28.1H127.408Z" fill="black"/>
<path d="M200.835 45.79C201.705 45.16 202.755 44.395 203.985 43.495C205.215 42.595 206.52 41.605 207.9 40.525C209.31 39.445 210.735 38.32 212.175 37.15C213.645 35.95 215.04 34.735 216.36 33.505C217.71 32.245 218.94 31 220.05 29.77C221.16 28.51 222.075 27.31 222.795 26.17L211.095 29.5H196.2L197.145 20.5H235.035V28.285C234.105 30.655 232.77 32.83 231.03 34.81C229.29 36.79 227.355 38.74 225.225 40.66L218.205 44.395C221.355 44.395 224.22 44.815 226.8 45.655C229.41 46.465 231.63 47.635 233.46 49.165C235.29 50.695 236.7 52.57 237.69 54.79C238.71 56.98 239.22 59.455 239.22 62.215C239.22 65.185 238.605 67.885 237.375 70.315C236.145 72.745 234.48 74.92 232.38 76.84C230.28 78.73 227.805 80.38 224.955 81.79C222.135 83.2 219.105 84.37 215.865 85.3C212.655 86.2 209.325 86.875 205.875 87.325C202.455 87.775 199.08 88 195.75 88V79C199.29 78.88 202.74 78.415 206.1 77.605C209.46 76.795 212.46 75.7 215.1 74.32C217.74 72.91 219.855 71.23 221.445 69.28C223.065 67.3 223.875 65.095 223.875 62.665C223.875 60.925 223.5 59.47 222.75 58.3C222.03 57.1 221.04 56.14 219.78 55.42C218.52 54.67 217.05 54.145 215.37 53.845C213.72 53.515 211.965 53.35 210.105 53.35C209.655 53.35 208.995 53.38 208.125 53.44C207.255 53.47 206.355 53.515 205.425 53.575C204.495 53.605 203.595 53.65 202.725 53.71C201.885 53.74 201.255 53.77 200.835 53.8V45.79ZM260.495 79.045C262.565 78.985 264.605 78.64 266.615 78.01C268.625 77.35 270.53 76.495 272.33 75.445C274.13 74.395 275.795 73.165 277.325 71.755C278.855 70.345 280.175 68.815 281.285 67.165C282.425 65.515 283.325 63.79 283.985 61.99C284.645 60.16 284.99 58.33 285.02 56.5L277.01 63.34C276.53 63.4 276.035 63.445 275.525 63.475C275.045 63.505 274.55 63.52 274.04 63.52C270.77 63.52 267.71 63.025 264.86 62.035C262.01 61.015 259.535 59.575 257.435 57.715C255.335 55.855 253.685 53.62 252.485 51.01C251.285 48.37 250.685 45.445 250.685 42.235C250.685 38.905 251.255 35.86 252.395 33.1C253.535 30.34 255.155 27.97 257.255 25.99C259.385 24.01 261.95 22.48 264.95 21.4C267.95 20.29 271.31 19.735 275.03 19.735C278.33 19.735 281.24 20.2 283.76 21.13C286.28 22.06 288.455 23.305 290.285 24.865C292.145 26.395 293.69 28.165 294.92 30.175C296.18 32.185 297.17 34.27 297.89 36.43C298.64 38.56 299.165 40.69 299.465 42.82C299.795 44.95 299.96 46.915 299.96 48.715C299.96 54.025 299.12 59.02 297.44 63.7C295.76 68.35 293.315 72.46 290.105 76.03C286.895 79.57 282.965 82.465 278.315 84.715C273.665 86.935 268.37 88.285 262.43 88.765L260.495 79.045ZM274.445 53.755C275.465 53.755 276.515 53.515 277.595 53.035C278.675 52.555 279.695 51.925 280.655 51.145C281.615 50.365 282.485 49.48 283.265 48.49C284.075 47.5 284.72 46.495 285.2 45.475C285.11 43.585 284.825 41.695 284.345 39.805C283.865 37.885 283.19 36.16 282.32 34.63C281.48 33.1 280.46 31.87 279.26 30.94C278.09 29.98 276.785 29.5 275.345 29.5C273.935 29.5 272.63 29.83 271.43 30.49C270.26 31.12 269.225 31.975 268.325 33.055C267.455 34.135 266.765 35.41 266.255 36.88C265.775 38.32 265.535 39.85 265.535 41.47C265.535 43.09 265.73 44.635 266.12 46.105C266.54 47.575 267.125 48.88 267.875 50.02C268.655 51.16 269.585 52.075 270.665 52.765C271.775 53.425 273.035 53.755 274.445 53.755Z" fill="#2764FF"/>
<rect x="10" y="60" width="179" height="28" fill="#2764FF"/>
<path d="M31.7948 79.112C30.9921 79.112 30.2781 78.944 29.6528 78.608C29.0368 78.272 28.5468 77.8147 28.1828 77.236C27.8281 76.648 27.6508 75.9807 27.6508 75.234C27.6508 74.478 27.8281 73.8107 28.1828 73.232C28.5468 72.644 29.0368 72.1867 29.6528 71.86C30.2781 71.524 30.9921 71.356 31.7948 71.356C32.5881 71.356 33.2975 71.524 33.9228 71.86C34.5481 72.1867 35.0381 72.6393 35.3928 73.218C35.7475 73.7967 35.9248 74.4687 35.9248 75.234C35.9248 75.9807 35.7475 76.648 35.3928 77.236C35.0381 77.8147 34.5481 78.272 33.9228 78.608C33.2975 78.944 32.5881 79.112 31.7948 79.112ZM31.7948 77.32C32.1588 77.32 32.4855 77.236 32.7748 77.068C33.0641 76.9 33.2928 76.662 33.4608 76.354C33.6288 76.0367 33.7128 75.6633 33.7128 75.234C33.7128 74.7953 33.6288 74.422 33.4608 74.114C33.2928 73.806 33.0641 73.568 32.7748 73.4C32.4855 73.232 32.1588 73.148 31.7948 73.148C31.4308 73.148 31.1041 73.232 30.8148 73.4C30.5255 73.568 30.2921 73.806 30.1148 74.114C29.9468 74.422 29.8628 74.7953 29.8628 75.234C29.8628 75.6633 29.9468 76.0367 30.1148 76.354C30.2921 76.662 30.5255 76.9 30.8148 77.068C31.1041 77.236 31.4308 77.32 31.7948 77.32ZM42.173 76.116C41.865 76.284 41.5243 76.4193 41.151 76.522C40.7776 76.6247 40.367 76.676 39.919 76.676C38.9296 76.676 38.169 76.452 37.637 76.004C37.105 75.5467 36.839 74.8233 36.839 73.834V71.468H39.023V73.694C39.023 74.1607 39.1443 74.4967 39.387 74.702C39.6296 74.898 39.9703 74.996 40.409 74.996C40.7263 74.996 41.0296 74.9587 41.319 74.884C41.6176 74.8093 41.9023 74.702 42.173 74.562V76.116ZM42.019 79V71.468H44.203V79H42.019ZM46.3 79V71.468H48.47V75.948L52.138 71.468H54.14V79H51.97V74.52L48.316 79H46.3ZM59.8235 79.112C59.0115 79.112 58.2881 78.9487 57.6535 78.622C57.0188 78.286 56.5195 77.824 56.1555 77.236C55.8008 76.648 55.6235 75.9807 55.6235 75.234C55.6235 74.478 55.8008 73.8107 56.1555 73.232C56.5195 72.644 57.0188 72.1867 57.6535 71.86C58.2881 71.524 59.0115 71.356 59.8235 71.356C60.6168 71.356 61.3075 71.524 61.8955 71.86C62.4835 72.1867 62.9175 72.658 63.1975 73.274L61.5035 74.184C61.3075 73.8293 61.0601 73.568 60.7615 73.4C60.4721 73.232 60.1548 73.148 59.8095 73.148C59.4361 73.148 59.1001 73.232 58.8015 73.4C58.5028 73.568 58.2648 73.806 58.0875 74.114C57.9195 74.422 57.8355 74.7953 57.8355 75.234C57.8355 75.6727 57.9195 76.046 58.0875 76.354C58.2648 76.662 58.5028 76.9 58.8015 77.068C59.1001 77.236 59.4361 77.32 59.8095 77.32C60.1548 77.32 60.4721 77.2407 60.7615 77.082C61.0601 76.914 61.3075 76.648 61.5035 76.284L63.1975 77.208C62.9175 77.8147 62.4835 78.286 61.8955 78.622C61.3075 78.9487 60.6168 79.112 59.8235 79.112ZM66.1209 79V72.756L66.6109 73.26H63.5729V71.468H70.8389V73.26H67.8009L68.2909 72.756V79H66.1209ZM72.0031 79V71.468H74.1731V74.408H77.4491V71.468H79.6331V79H77.4491V76.186H74.1731V79H72.0031ZM89.4798 79V71.468H91.6498V79H89.4798ZM85.6858 73.876C86.6752 73.8853 87.4172 74.1093 87.9118 74.548C88.4158 74.9773 88.6678 75.5887 88.6678 76.382C88.6678 77.2127 88.3832 77.8613 87.8138 78.328C87.2445 78.7853 86.4372 79.014 85.3918 79.014L81.7238 79V71.468H83.8938V73.876H85.6858ZM85.1958 77.46C85.6158 77.4693 85.9378 77.3807 86.1618 77.194C86.3858 77.0073 86.4978 76.7273 86.4978 76.354C86.4978 75.9807 86.3858 75.7147 86.1618 75.556C85.9378 75.388 85.6158 75.2993 85.1958 75.29L83.8938 75.276V77.46H85.1958ZM97.4371 79.112C96.5784 79.112 95.8224 78.944 95.1691 78.608C94.5251 78.272 94.0257 77.8147 93.6711 77.236C93.3164 76.648 93.1391 75.9807 93.1391 75.234C93.1391 74.478 93.3117 73.8107 93.6571 73.232C94.0117 72.644 94.4924 72.1867 95.0991 71.86C95.7057 71.524 96.3917 71.356 97.1571 71.356C97.8944 71.356 98.5571 71.5147 99.1451 71.832C99.7424 72.14 100.214 72.588 100.559 73.176C100.904 73.7547 101.077 74.45 101.077 75.262C101.077 75.346 101.072 75.444 101.063 75.556C101.054 75.6587 101.044 75.7567 101.035 75.85H94.9171V74.576H99.8871L99.0471 74.954C99.0471 74.562 98.9677 74.2213 98.8091 73.932C98.6504 73.6427 98.4311 73.4187 98.1511 73.26C97.8711 73.092 97.5444 73.008 97.1711 73.008C96.7977 73.008 96.4664 73.092 96.1771 73.26C95.8971 73.4187 95.6777 73.6473 95.5191 73.946C95.3604 74.2353 95.2811 74.5807 95.2811 74.982V75.318C95.2811 75.7287 95.3697 76.0927 95.5471 76.41C95.7337 76.718 95.9904 76.956 96.3171 77.124C96.6531 77.2827 97.0451 77.362 97.4931 77.362C97.8944 77.362 98.2444 77.3013 98.5431 77.18C98.8511 77.0587 99.1311 76.8767 99.3831 76.634L100.545 77.894C100.2 78.286 99.7657 78.5893 99.2431 78.804C98.7204 79.0093 98.1184 79.112 97.4371 79.112ZM110.3 79.112C109.488 79.112 108.765 78.9487 108.13 78.622C107.495 78.286 106.996 77.824 106.632 77.236C106.277 76.648 106.1 75.9807 106.1 75.234C106.1 74.478 106.277 73.8107 106.632 73.232C106.996 72.644 107.495 72.1867 108.13 71.86C108.765 71.524 109.488 71.356 110.3 71.356C111.093 71.356 111.784 71.524 112.372 71.86C112.96 72.1867 113.394 72.658 113.674 73.274L111.98 74.184C111.784 73.8293 111.537 73.568 111.238 73.4C110.949 73.232 110.631 73.148 110.286 73.148C109.913 73.148 109.577 73.232 109.278 73.4C108.979 73.568 108.741 73.806 108.564 74.114C108.396 74.422 108.312 74.7953 108.312 75.234C108.312 75.6727 108.396 76.046 108.564 76.354C108.741 76.662 108.979 76.9 109.278 77.068C109.577 77.236 109.913 77.32 110.286 77.32C110.631 77.32 110.949 77.2407 111.238 77.082C111.537 76.914 111.784 76.648 111.98 76.284L113.674 77.208C113.394 77.8147 112.96 78.286 112.372 78.622C111.784 78.9487 111.093 79.112 110.3 79.112ZM115.001 79V71.468H117.171V75.948L120.839 71.468H122.841V79H120.671V74.52L117.017 79H115.001ZM128.525 79.112C127.713 79.112 126.989 78.9487 126.355 78.622C125.72 78.286 125.221 77.824 124.857 77.236C124.502 76.648 124.325 75.9807 124.325 75.234C124.325 74.478 124.502 73.8107 124.857 73.232C125.221 72.644 125.72 72.1867 126.355 71.86C126.989 71.524 127.713 71.356 128.525 71.356C129.318 71.356 130.009 71.524 130.597 71.86C131.185 72.1867 131.619 72.658 131.899 73.274L130.205 74.184C130.009 73.8293 129.761 73.568 129.463 73.4C129.173 73.232 128.856 73.148 128.511 73.148C128.137 73.148 127.801 73.232 127.503 73.4C127.204 73.568 126.966 73.806 126.789 74.114C126.621 74.422 126.537 74.7953 126.537 75.234C126.537 75.6727 126.621 76.046 126.789 76.354C126.966 76.662 127.204 76.9 127.503 77.068C127.801 77.236 128.137 77.32 128.511 77.32C128.856 77.32 129.173 77.2407 129.463 77.082C129.761 76.914 130.009 76.648 130.205 76.284L131.899 77.208C131.619 77.8147 131.185 78.286 130.597 78.622C130.009 78.9487 129.318 79.112 128.525 79.112ZM134.822 79V72.756L135.312 73.26H132.274V71.468H139.54V73.26H136.502L136.992 72.756V79H134.822ZM144.072 79.112C143.213 79.112 142.457 78.944 141.804 78.608C141.16 78.272 140.661 77.8147 140.306 77.236C139.951 76.648 139.774 75.9807 139.774 75.234C139.774 74.478 139.947 73.8107 140.292 73.232C140.647 72.644 141.127 72.1867 141.734 71.86C142.341 71.524 143.027 71.356 143.792 71.356C144.529 71.356 145.192 71.5147 145.78 71.832C146.377 72.14 146.849 72.588 147.194 73.176C147.539 73.7547 147.712 74.45 147.712 75.262C147.712 75.346 147.707 75.444 147.698 75.556C147.689 75.6587 147.679 75.7567 147.67 75.85H141.552V74.576H146.522L145.682 74.954C145.682 74.562 145.603 74.2213 145.444 73.932C145.285 73.6427 145.066 73.4187 144.786 73.26C144.506 73.092 144.179 73.008 143.806 73.008C143.433 73.008 143.101 73.092 142.812 73.26C142.532 73.4187 142.313 73.6473 142.154 73.946C141.995 74.2353 141.916 74.5807 141.916 74.982V75.318C141.916 75.7287 142.005 76.0927 142.182 76.41C142.369 76.718 142.625 76.956 142.952 77.124C143.288 77.2827 143.68 77.362 144.128 77.362C144.529 77.362 144.879 77.3013 145.178 77.18C145.486 77.0587 145.766 76.8767 146.018 76.634L147.18 77.894C146.835 78.286 146.401 78.5893 145.878 78.804C145.355 79.0093 144.753 79.112 144.072 79.112ZM149.386 79V71.468H151.668L154.51 76.62H153.6L156.638 71.468H158.682L158.71 79H156.736V73.708L157.072 73.932L154.482 78.272H153.558L150.954 73.778L151.36 73.68V79H149.386ZM168.558 79V71.468H170.728V79H168.558ZM164.764 73.876C165.753 73.8853 166.495 74.1093 166.99 74.548C167.494 74.9773 167.746 75.5887 167.746 76.382C167.746 77.2127 167.461 77.8613 166.892 78.328C166.323 78.7853 165.515 79.014 164.47 79.014L160.802 79V71.468H162.972V73.876H164.764ZM164.274 77.46C164.694 77.4693 165.016 77.3807 165.24 77.194C165.464 77.0073 165.576 76.7273 165.576 76.354C165.576 75.9807 165.464 75.7147 165.24 75.556C165.016 75.388 164.694 75.2993 164.274 75.29L162.972 75.276V77.46H164.274Z" fill="white"/>
</g>
<defs>
<clipPath id="clip0_1_2">
<rect width="307" height="100" fill="white"/>
</clipPath>
</defs>
</svg>
