<svg width="191" height="191" viewBox="0 0 191 191" fill="none" xmlns="http://www.w3.org/2000/svg">
<path d="M179.611 100.836C179.565 101.437 179.593 101.93 179.697 102.316C179.896 103.047 180.34 103.44 181.03 103.493C181.432 103.524 181.758 103.372 182.006 103.035C182.248 102.699 182.481 102.159 182.705 101.416L183.095 100.147C183.48 98.901 183.859 98.047 184.233 97.588C184.86 96.809 185.772 96.466 186.969 96.559C188.061 96.643 188.938 97.111 189.599 97.961C190.261 98.811 190.532 100.006 190.413 101.546C190.314 102.831 189.887 103.9 189.133 104.752C188.384 105.61 187.359 106.011 186.059 105.955L186.249 103.505C186.986 103.518 187.532 103.238 187.887 102.666C188.122 102.284 188.262 101.799 188.308 101.208C188.359 100.552 188.267 100.017 188.032 99.605C187.798 99.193 187.443 98.968 186.969 98.932C186.533 98.898 186.192 99.066 185.947 99.435C185.785 99.673 185.575 100.189 185.319 100.985L184.652 103.049C184.36 103.953 184.011 104.625 183.605 105.066C182.975 105.75 182.117 106.05 181.03 105.966C179.915 105.879 179.021 105.38 178.348 104.468C177.68 103.561 177.406 102.33 177.526 100.774C177.649 99.185 178.107 97.964 178.9 97.109C179.699 96.255 180.733 95.877 182.002 95.975L181.814 98.408C181.251 98.442 180.822 98.562 180.529 98.767C179.995 99.142 179.689 99.831 179.611 100.836Z" fill="white"/>
<path d="M177.813 116.87L178.893 112.493L176.654 111.069L177.294 108.474L188.128 115.643L187.436 118.448L174.519 119.725L175.183 117.033L177.813 116.87ZM180.031 116.681L185.072 116.352L180.775 113.667L180.031 116.681Z" fill="white"/>
<path d="M171.001 131.094C170.601 129.923 170.685 128.686 171.253 127.382C171.957 125.769 173.027 124.727 174.465 124.255C175.907 123.786 177.534 123.946 179.345 124.736C181.303 125.59 182.583 126.773 183.185 128.285C183.71 129.601 183.664 130.964 183.049 132.374C182.226 134.261 181.006 135.371 179.387 135.703C178.482 135.882 177.672 135.836 176.957 135.566L177.979 133.223C178.583 133.305 179.074 133.287 179.452 133.168C180.124 132.955 180.643 132.429 181.009 131.592C181.38 130.74 181.329 129.918 180.853 129.125C180.383 128.334 179.519 127.664 178.261 127.116C177.003 126.567 175.947 126.414 175.092 126.657C174.241 126.907 173.64 127.433 173.29 128.235C172.932 129.056 172.927 129.8 173.277 130.466C173.462 130.83 173.81 131.217 174.319 131.627L173.307 133.947C172.173 133.211 171.404 132.26 171.001 131.094Z" fill="white"/>
<path d="M169.027 142.59L170.477 140.384L166.467 137.749L167.839 135.661L178.065 142.38L174.769 147.395C174.284 148.103 173.835 148.596 173.42 148.873C173.003 149.155 172.549 149.327 172.059 149.389C171.654 149.441 171.252 149.428 170.852 149.351C170.452 149.274 170.051 149.103 169.649 148.838C169.164 148.519 168.765 148.082 168.455 147.527C168.149 146.975 168.084 146.353 168.26 145.661C167.761 146.008 167.271 146.164 166.792 146.127C166.315 146.098 165.718 145.848 165.001 145.377L164.314 144.926C163.847 144.619 163.518 144.429 163.327 144.357C163.027 144.239 162.748 144.241 162.489 144.362L162.232 144.194L163.778 141.842C164.047 141.926 164.26 142 164.417 142.063C164.74 142.196 165.054 142.359 165.357 142.552L166.317 143.163C166.975 143.582 167.489 143.747 167.858 143.659C168.224 143.575 168.614 143.219 169.027 142.59ZM170.034 145.108C169.949 145.662 170.193 146.127 170.766 146.503C171.386 146.911 171.937 146.978 172.421 146.706C172.693 146.554 172.981 146.247 173.285 145.784L174.917 143.301L172.169 141.496L170.579 143.917C170.263 144.398 170.081 144.795 170.034 145.108Z" fill="white"/>
<path d="M157.019 154.188L160.088 150.887L158.823 148.554L160.643 146.597L166.63 158.126L164.663 160.241L152.752 155.083L154.64 153.052L157.019 154.188ZM159.049 155.1L163.615 157.26L161.163 152.827L159.049 155.1Z" fill="white"/>
<path d="M157.849 166.999L155.838 168.577L149.642 160.682L144.875 164.423L143.517 162.693L150.295 157.374L157.849 166.999Z" fill="white"/>
<path d="M146.936 175.119L144.763 176.435L138.424 165.969L140.597 164.653L146.936 175.119Z" fill="white"/>
<path d="M129.558 175.823L132.59 182.705L130.213 183.753L127.18 176.871C126.656 175.681 126.432 174.673 126.51 173.847C126.663 172.328 127.709 171.141 129.649 170.286C131.588 169.432 133.172 169.459 134.402 170.369C135.064 170.869 135.657 171.714 136.181 172.904L139.214 179.786L136.837 180.834L133.804 173.952C133.465 173.182 133.126 172.661 132.787 172.386C132.227 171.883 131.471 171.842 130.519 172.261C129.572 172.679 129.095 173.264 129.088 174.017C129.062 174.451 129.219 175.054 129.558 175.823Z" fill="white"/>
<path d="M119.2 174.681L121.517 174.128L124.357 186.03L120.74 186.893L116.343 178.051L116.428 187.922L112.851 188.775L110.011 176.874L112.329 176.321L114.25 184.371C114.305 184.602 114.379 184.926 114.473 185.342C114.568 185.763 114.642 186.086 114.696 186.312L114.565 175.787L116.979 175.211L121.599 184.665C121.545 184.439 121.465 184.117 121.36 183.698C121.256 183.285 121.176 182.963 121.121 182.731L119.2 174.681Z" fill="white"/>
<path d="M106.124 179.858L103.62 180.091L103.391 177.628L105.896 177.395L106.124 179.858Z" fill="white"/>
<path d="M90.6535 178.165C91.3471 177.781 92.1859 177.612 93.1698 177.658C94.7898 177.733 96.0898 178.356 97.0718 179.526C98.0978 180.703 98.5648 182.271 98.4748 184.227C98.3828 186.206 97.7648 187.768 96.6208 188.911C95.4758 190.055 94.0088 190.585 92.2174 190.502C90.664 190.43 89.4358 189.977 88.5327 189.143C87.6238 188.314 87.1275 187.308 87.0439 186.124L89.5564 186.241C89.7112 187.084 90.1567 187.689 90.8932 188.056C91.3048 188.258 91.7677 188.371 92.2818 188.395C93.2658 188.44 94.0928 188.104 94.7628 187.388C95.4278 186.676 95.7948 185.574 95.8638 184.082C95.9338 182.578 95.6398 181.498 94.9838 180.842C94.3268 180.185 93.5618 179.837 92.6886 179.796C91.8317 179.757 91.1183 179.97 90.5482 180.437C89.9779 180.909 89.6107 181.543 89.4464 182.338L92.2739 182.469L92.1793 184.509L87.0882 184.273L87.3922 177.714L89.0836 177.793L89.27 179.33C89.7889 178.773 90.25 178.384 90.6535 178.165Z" fill="white"/>
<path d="M75.6838 178.2L80.0797 179.196L81.4612 176.93L84.068 177.521L77.106 188.489L74.2887 187.85L72.7666 174.96L75.4705 175.573L75.6838 178.2ZM75.9141 180.414L76.3398 185.447L78.9418 181.1L75.9141 180.414Z" fill="white"/>
<path d="M67.4907 173.273L69.6814 174.209L64.873 185.46L61.4535 183.998L63.1887 174.277L57.3775 182.256L53.9961 180.811L58.8045 169.56L60.9951 170.496L57.7428 178.107C57.6493 178.325 57.5163 178.63 57.3437 179.019C57.169 179.414 57.036 179.718 56.9446 179.932L63.1094 171.4L65.3917 172.375L63.4708 182.721C63.5621 182.507 63.6901 182.201 63.8546 181.802C64.017 181.408 64.1449 181.101 64.2384 180.883L67.4907 173.273Z" fill="white"/>
<path d="M45.053 167.489L50.0319 170.734L51.7499 168.099L46.0755 164.4L47.2767 162.557L55.0442 167.621L48.3628 177.871L40.8457 172.971L42.0287 171.156L47.4528 174.691L48.8715 172.515L43.8926 169.269L45.053 167.489Z" fill="white"/>
<path d="M18.9866 126.421L21.0315 131.575L9.65861 136.088L7.46681 130.563C6.93431 129.161 6.94621 128.013 7.50261 127.12C7.84731 126.578 8.35661 126.174 9.03051 125.906C9.72491 125.631 10.3524 125.584 10.9129 125.767C11.2271 125.868 11.5574 126.071 11.9039 126.374C11.8842 125.709 12.0451 125.139 12.3865 124.664C12.7259 124.184 13.2223 123.815 13.8756 123.555C14.5494 123.288 15.2211 123.218 15.8908 123.345C16.3314 123.42 16.7369 123.572 17.1072 123.8C17.5299 124.055 17.8916 124.412 18.1925 124.87C18.4913 125.323 18.756 125.84 18.9866 126.421ZM14.0006 128.462L15.124 131.294L18.1563 130.091L17.0481 127.298C16.8502 126.799 16.6292 126.437 16.3853 126.212C15.9384 125.806 15.3651 125.742 14.6656 126.019C14.074 126.254 13.7646 126.659 13.7373 127.236C13.722 127.557 13.8098 127.966 14.0006 128.462ZM11.3641 128.142C11.0564 127.907 10.6635 127.884 10.1851 128.074C9.65531 128.284 9.38711 128.628 9.38061 129.107C9.40321 129.509 9.52361 129.985 9.74201 130.536L10.7338 133.036L13.2414 132.041L12.1332 129.248C11.9353 128.749 11.6789 128.38 11.3641 128.142Z" fill="white"/>
<path d="M10.2751 114.52L10.8191 117.103L15.5139 116.114L16.0288 118.559L4.05609 121.081L2.81931 115.208C2.65879 114.365 2.62596 113.699 2.72084 113.21C2.81457 112.715 3.01249 112.272 3.31459 111.88C3.56309 111.557 3.85549 111.28 4.19179 111.051C4.52809 110.822 4.93179 110.658 5.40289 110.558C5.97139 110.439 6.56209 110.464 7.17489 110.635C7.78229 110.807 8.26919 111.199 8.63579 111.812C8.74149 111.212 8.97619 110.756 9.33979 110.442C9.69689 110.123 10.2951 109.876 11.1345 109.699L11.9386 109.53C12.4855 109.415 12.8519 109.315 13.0377 109.23C13.3327 109.1 13.5282 108.901 13.6242 108.632L13.9247 108.569L14.5047 111.322C14.2553 111.454 14.0528 111.553 13.8972 111.62C13.5751 111.755 13.2387 111.863 12.8878 111.943L11.7785 112.193C11.0172 112.365 10.5379 112.613 10.3404 112.937C10.1417 113.256 10.12 113.784 10.2751 114.52ZM7.77829 113.46C7.44599 113.009 6.94409 112.855 6.27259 112.996C5.54699 113.149 5.11039 113.493 4.96279 114.027C4.87899 114.328 4.89409 114.749 5.00819 115.29L5.62059 118.198L8.83709 117.521L8.24009 114.686C8.12149 114.123 7.96759 113.714 7.77829 113.46Z" fill="white"/>
<path d="M13.4201 99.377C13.4741 101.125 13.0397 102.476 12.1169 103.429C10.988 104.704 9.32574 105.375 7.12984 105.443C4.88964 105.512 3.18904 104.945 2.02796 103.741C1.04806 102.846 0.531112 101.525 0.477132 99.777C0.423142 98.029 0.857572 96.679 1.78041 95.726C2.86515 94.458 4.52754 93.789 6.76774 93.72C8.96364 93.652 10.6641 94.217 11.8693 95.414C12.8492 96.308 13.3661 97.63 13.4201 99.377ZM10.06 97.065C9.29504 96.496 8.22394 96.233 6.84664 96.275C5.47494 96.318 4.42494 96.649 3.69664 97.269C2.96269 97.884 2.61134 98.698 2.6426 99.71C2.67386 100.723 3.07214 101.519 3.83754 102.098C4.60284 102.678 5.67414 102.947 7.05144 102.904C8.42864 102.862 9.48134 102.528 10.2094 101.902C10.9375 101.276 11.2859 100.457 11.2547 99.444C11.2234 98.432 10.8252 97.639 10.06 97.065Z" fill="white"/>
<path d="M2.74589 75.7878L3.18376 73.2268L14.6636 78.6844L14.2523 81.09L6.95026 81.3404L4.54566 81.3672L6.80476 82.1914L13.6087 84.8537L13.2086 87.1938L0.563477 88.5518L1.02094 85.8762L8.19936 85.4615L10.181 85.4466L8.35926 84.773L1.64489 82.227L2.09956 79.5679L9.25006 79.3168L11.2358 79.2773L9.44956 78.593L2.74589 75.7878Z" fill="white"/>
<path d="M16.0027 67.4441C16.2125 66.8785 16.3206 66.3963 16.3269 65.9973C16.3365 65.2394 16.0171 64.7402 15.3685 64.4996C14.9898 64.3591 14.635 64.4164 14.3043 64.6715C13.9788 64.9285 13.6064 65.3835 13.1871 66.0366L12.4643 67.1496C11.7518 68.2429 11.1527 68.9591 10.6668 69.2983C9.85081 69.875 8.87991 69.9546 7.75401 69.537C6.72671 69.1559 6.01181 68.4657 5.60931 67.4665C5.20671 66.4672 5.27401 65.2438 5.81091 63.7962C6.25941 62.5874 6.96311 61.6768 7.92211 61.0645C8.87781 60.4452 9.97301 60.3409 11.2077 60.7517L10.3532 63.0553C9.64771 62.8408 9.04581 62.9599 8.54741 63.4125C8.21681 63.7148 7.94861 64.1436 7.74261 64.6987C7.51361 65.3162 7.45531 65.8552 7.56771 66.316C7.68011 66.7768 7.95941 67.0899 8.40561 67.2554C8.81551 67.4075 9.18891 67.3394 9.52601 67.0513C9.74751 66.8678 10.0905 66.4285 10.555 65.7331L11.7631 63.9325C12.292 63.143 12.8121 62.5922 13.3233 62.2801C14.1169 61.7954 15.0248 61.7427 16.0469 62.1218C17.095 62.5106 17.8175 63.236 18.2144 64.2981C18.6081 65.3531 18.5335 66.6122 17.9908 68.0753C17.4365 69.5695 16.6607 70.6187 15.6635 71.2226C14.6611 71.8246 13.5632 71.9043 12.3699 71.4617L13.2186 69.1736C13.7696 69.2953 14.2142 69.298 14.5526 69.1815C15.1691 68.9675 15.6524 68.3883 16.0027 67.4441Z" fill="white"/>
<path d="M20.3607 49.884L17.4325 55.056L20.1702 56.6059L23.5073 50.7116L25.4215 51.7953L20.8534 59.8639L10.2061 53.8358L14.6269 46.0273L16.5123 47.0947L13.3224 52.729L15.5833 54.009L18.5115 48.837L20.3607 49.884Z" fill="white"/>
<path d="M26.6229 41.8434L24.9707 43.902L28.7125 46.905L27.1486 48.8536L17.6064 41.1953L21.3628 36.5148C21.9127 35.8563 22.4068 35.4085 22.8454 35.1715C23.2874 34.9302 23.7556 34.8022 24.25 34.7874C24.6579 34.7742 25.0571 34.825 25.4476 34.9397C25.838 35.0544 26.221 35.2624 26.5965 35.5637C27.0496 35.9274 27.4045 36.4003 27.6611 36.9823C27.9135 37.5609 27.919 38.1862 27.6777 38.8582C28.2079 38.56 28.7098 38.4519 29.1832 38.5339C29.6559 38.6081 30.2267 38.9136 30.8956 39.4505L31.5365 39.9648C31.9724 40.3147 32.2819 40.5347 32.465 40.6248C32.7525 40.7705 33.0308 40.7951 33.2997 40.6987L33.5392 40.891L31.7779 43.0856C31.518 42.9763 31.3128 42.8826 31.1626 42.8046C30.8534 42.6416 30.5569 42.4497 30.2729 42.2289L29.3756 41.5301C28.7601 41.0503 28.2644 40.8369 27.8884 40.8899C27.5158 40.9386 27.094 41.2564 26.6229 41.8434ZM25.8596 39.2404C25.997 38.6978 25.7981 38.2118 25.2629 37.7823C24.6846 37.3182 24.142 37.1985 23.6352 37.4233C23.3498 37.549 23.034 37.8276 22.6876 38.2592L20.8276 40.5768L23.3911 42.6343L25.2044 40.3749C25.5646 39.9261 25.783 39.5479 25.8596 39.2404Z" fill="white"/>
<path d="M43.5353 31.2329L41.5985 32.6201L34.4736 22.6733L37.4968 20.5078L44.9076 27.0335L41.1003 17.9266L44.0897 15.7852L51.2147 25.732L49.278 27.1193L44.4587 20.3914C44.3201 20.198 44.129 19.9264 43.8854 19.5768C43.6385 19.2227 43.4474 18.9511 43.3121 18.7622L47.4087 28.4583L45.391 29.9036L37.5424 22.895C37.6778 23.084 37.8734 23.3523 38.1292 23.7C38.3818 24.0432 38.5774 24.3115 38.716 24.5049L43.5353 31.2329Z" fill="white"/>
<path d="M56.6495 22.5312L54.484 23.5243L49.3838 12.4026L52.764 10.8525L58.7964 18.6701L56.7932 9.00472L60.1357 7.47192L65.2359 18.5936L63.0705 19.5866L59.6207 12.064C59.5215 11.8477 59.3856 11.5448 59.213 11.1552C59.0382 10.7605 58.9023 10.4575 58.8054 10.2463L60.9804 20.5451L58.7244 21.5797L52.3542 13.2047C52.4511 13.4159 52.592 13.7166 52.777 14.1066C52.9596 14.4917 53.1005 14.7923 53.1997 15.0086L56.6495 22.5312Z" fill="white"/>
<path d="M74.431 16.0533C72.7332 16.4721 71.3217 16.3301 70.1965 15.6273C68.7133 14.7905 67.7086 13.3057 67.1825 11.1727C66.6457 8.99671 66.8445 7.2149 67.779 5.8273C68.4483 4.6819 69.6319 3.8997 71.3297 3.4809C73.0275 3.0621 74.439 3.20411 75.5642 3.90691C77.0314 4.70201 78.0333 6.1876 78.5701 8.3636C79.0963 10.4966 78.9001 12.2777 77.9816 13.7069C77.3123 14.8523 76.1288 15.6345 74.431 16.0533ZM75.989 12.2833C76.3849 11.4162 76.4179 10.3137 76.0879 8.9759C75.7592 7.6434 75.2153 6.6861 74.4561 6.1039C73.7009 5.515 72.8318 5.3418 71.8485 5.5844C70.8653 5.8269 70.1703 6.3831 69.7636 7.2529C69.3569 8.1227 69.3186 9.22651 69.6486 10.5643C69.9786 11.9021 70.5259 12.8615 71.2904 13.4423C72.055 14.0232 72.9289 14.1924 73.9121 13.9498C74.8953 13.7073 75.5876 13.1518 75.989 12.2833Z" fill="white"/>
<path d="M88.0189 8.50742L85.3856 8.69062L85.7185 13.4768L83.226 13.6502L82.377 1.44436L88.364 1.02795C89.2209 0.984994 89.8851 1.04419 90.3567 1.20554C90.8339 1.36651 91.2456 1.62355 91.5919 1.97668C91.8784 2.2674 92.112 2.59508 92.2927 2.95972C92.4734 3.32432 92.5804 3.74682 92.6138 4.22712C92.6541 4.80682 92.5476 5.38832 92.2942 5.97172C92.0404 6.54972 91.5848 6.97802 90.9274 7.25672C91.5062 7.44392 91.9261 7.73922 92.1871 8.14262C92.4533 8.54012 92.6162 9.16672 92.6757 10.0224L92.7327 10.8422C92.7714 11.3998 92.8199 11.7764 92.8779 11.9721C92.966 12.2821 93.1372 12.5032 93.3902 12.6354L93.4112 12.9418L90.604 13.137C90.5079 12.8719 90.4377 12.6577 90.393 12.4944C90.303 12.1567 90.2427 11.8086 90.2122 11.4502L90.1168 10.3169C90.0516 9.53932 89.872 9.03032 89.5779 8.79002C89.2893 8.54942 88.7697 8.45522 88.0189 8.50742ZM89.413 6.18052C89.9048 5.91332 90.1269 5.43742 90.0793 4.75292C90.0278 4.01312 89.7476 3.53332 89.2386 3.31362C88.9526 3.18922 88.5336 3.14632 87.9815 3.18472L85.017 3.39092L85.2451 6.67002L88.1351 6.46902C88.7092 6.42912 89.1352 6.33292 89.413 6.18052Z" fill="white"/>
<path d="M103.16 8.9291L100.574 8.679L100.151 13.058L97.6221 12.8136L98.8001 0.63501L104.104 1.14793C105.327 1.26618 106.272 1.67442 106.938 2.37265C107.605 3.0709 107.874 4.0782 107.747 5.3947C107.608 6.8323 107.146 7.8134 106.361 8.338C105.577 8.8626 104.51 9.0596 103.16 8.9291ZM104.595 6.5077C104.954 6.2477 105.164 5.801 105.225 5.1675C105.286 4.5341 105.162 4.0662 104.852 3.7638C104.548 3.4619 104.095 3.282 103.495 3.2239L101.124 2.99462L100.777 6.5804L103.148 6.8097C103.749 6.8678 104.231 6.7671 104.595 6.5077Z" fill="white"/>
<path d="M118.162 15.8361C117.401 16.0573 116.545 16.0372 115.596 15.7759C114.032 15.3459 112.901 14.4521 112.201 13.0945C111.46 11.7198 111.349 10.0881 111.869 8.19921C112.394 6.28911 113.341 4.90231 114.709 4.03891C116.077 3.17561 117.626 2.98164 119.354 3.45721C120.854 3.86961 121.952 4.58201 122.649 5.59451C123.353 6.60321 123.616 7.69411 123.436 8.86731L121.011 8.20021C121.046 7.34321 120.745 6.65481 120.107 6.13501C119.75 5.84741 119.323 5.63531 118.827 5.49891C117.878 5.23761 116.997 5.38281 116.185 5.93431C115.38 6.48201 114.779 7.47611 114.383 8.91671C113.984 10.368 114.032 11.4862 114.528 12.2711C115.024 13.056 115.693 13.5644 116.536 13.7963C117.363 14.0238 118.106 13.9727 118.765 13.6432C119.425 13.3083 119.923 12.7708 120.259 12.0309L117.53 11.2802L118.071 9.31131L122.985 10.6631L121.244 16.9939L119.611 16.5448L119.768 15.0039C119.139 15.4335 118.604 15.7109 118.162 15.8361Z" fill="white"/>
<path d="M138.651 24.8158C137.858 24.8239 137.04 24.5743 136.195 24.0671C134.806 23.2321 133.956 22.0667 133.648 20.5709C133.304 19.0475 133.637 17.4461 134.645 15.7669C135.665 14.0686 136.951 12.9878 138.501 12.5245C140.051 12.0613 141.594 12.2913 143.131 13.2146C144.464 14.0153 145.33 14.9971 145.729 16.1599C146.136 17.3208 146.095 18.442 145.606 19.5237L143.45 18.2285C143.714 17.4125 143.61 16.6684 143.135 15.9962C142.869 15.6231 142.515 15.304 142.074 15.039C141.229 14.5318 140.342 14.4345 139.412 14.7472C138.489 15.058 137.643 15.8538 136.874 17.1346C136.099 18.4249 135.844 19.5148 136.111 20.4042C136.377 21.2936 136.885 21.9634 137.634 22.4137C138.369 22.8553 139.099 23.0062 139.822 22.8661C140.548 22.7212 141.172 22.3377 141.695 21.7154L139.268 20.2578L140.32 18.5074L144.689 21.1319L141.308 26.7603L139.856 25.8883L140.422 24.4466C139.7 24.691 139.11 24.8141 138.651 24.8158Z" fill="white"/>
<path d="M151.978 31.9482L148.578 28.9886L146.288 30.3296L144.272 28.5745L155.599 22.2134L157.778 24.1102L153.012 36.1835L150.921 34.363L151.978 31.9482ZM152.824 29.8893L154.833 25.2553L150.482 27.8508L152.824 29.8893Z" fill="white"/>
<path d="M156.75 40.0048L155.259 38.1468L164.801 30.4885L167.129 33.3887L161.018 41.1454L169.903 36.8457L172.205 39.7135L162.662 47.3719L161.171 45.5139L167.626 40.3339C167.811 40.1849 168.072 39.9793 168.408 39.7169C168.748 39.451 169.008 39.2454 169.19 39.0999L159.732 43.7207L158.179 41.7851L164.747 33.5649C164.566 33.7104 164.309 33.9203 163.976 34.1948C163.647 34.4659 163.39 34.6758 163.204 34.8248L156.75 40.0048Z" fill="white"/>
<path d="M173.948 55.8303L171.097 50.6156L168.337 52.125L171.586 58.0679L169.656 59.1233L165.208 50.9882L175.943 45.1179L180.248 52.9909L178.347 54.0303L175.241 48.3496L172.961 49.5961L175.813 54.8107L173.948 55.8303Z" fill="white"/>
<path d="M23.5371 151.209L26.4108 148.504L29.1962 151.52L26.3224 154.225L23.5371 151.209Z" fill="white"/>
<path d="M180.456 78.4273L184.261 77.3771L185.315 81.3446L181.511 82.3948L180.456 78.4273Z" fill="white"/>
</svg>
