<svg width="65" height="65" viewBox="0 0 65 65" fill="none" xmlns="http://www.w3.org/2000/svg">
<path fill-rule="evenodd" clip-rule="evenodd" d="M21.547 55.189C27.6806 55.189 33.82 55.34 39.945 55.117C42.514 55.024 45.22 54.534 47.575 53.535C53.077 51.198 55.876 45.745 55.224 39.59C54.648 34.163 50.502 29.4163 44.815 28.2477C41.66 27.5995 38.378 27.5243 35.146 27.3305C32.731 27.1857 30.302 27.2965 27.8804 27.2347C25.2111 27.1666 23.4743 25.6192 23.2312 23.181C22.998 20.8412 24.5302 18.8474 27.0289 18.2433C27.1788 18.2071 27.3334 18.1767 27.4867 18.1711C34.324 17.9223 41.181 17.3621 47.929 19.0498C57.783 21.5136 65.316 31.331 64.99 42.036C64.67 52.518 57.559 61.443 46.985 63.923C44.348 64.541 41.588 64.831 38.877 64.884C32.179 65.018 25.4736 65.057 18.7772 64.887C12.6024 64.731 6.69991 63.45 1.86111 59.167C1.25181 58.628 0.645113 58.017 0.250013 57.317C-0.329387 56.291 0.130614 55.438 1.29551 55.308C2.41841 55.182 3.55941 55.196 4.69251 55.194C10.3107 55.184 15.9289 55.19 21.547 55.189Z" fill="white"/>
<path fill-rule="evenodd" clip-rule="evenodd" d="M32.4096 46.303C27.7752 46.471 23.1046 46.708 18.6737 44.976C10.1454 41.644 4.85823 35.513 3.66123 26.2945C1.86463 12.4565 11.8518 0.53593 25.7223 0.0167302C32.1096 -0.22237 37.7316 2.10673 42.3336 6.65893C42.7756 7.09663 42.8766 7.88403 43.1366 8.50903C42.4956 8.74453 41.8586 9.17283 41.2136 9.18393C37.3496 9.25063 33.4816 9.12733 29.6209 9.25373C26.4866 9.35633 23.3575 9.69393 20.4677 11.124C15.2898 13.6866 12.0197 19.7932 12.9918 25.1049C14.1466 31.414 19.0206 36.135 25.1327 36.589C29.6948 36.928 34.2776 36.979 38.8496 37.186C39.8706 37.233 40.9276 37.255 41.8956 37.537C44.1656 38.199 45.3266 40.071 45.0826 42.392C44.8756 44.361 43.1866 46.16 41.0606 46.267C38.1836 46.413 35.2946 46.303 32.4096 46.303Z" fill="white"/>
</svg>
