<svg width="189" height="191" viewBox="0 0 189 191" fill="none" xmlns="http://www.w3.org/2000/svg">
<path d="M151.728 154.927L155.548 158.831L158.965 155.487L155.146 151.583L156.955 149.813L165.512 158.558L163.702 160.329L160.44 156.995L157.022 160.338L160.285 163.673L158.469 165.449L149.913 156.704L151.728 154.927Z" fill="white"/>
<path d="M141.507 162.916C142.961 161.945 144.337 161.598 145.634 161.877C147.313 162.16 148.763 163.215 149.982 165.042C151.227 166.906 151.645 168.649 151.238 170.272C150.998 171.576 150.151 172.714 148.697 173.685C147.242 174.656 145.866 175.003 144.569 174.724C142.919 174.475 141.472 173.418 140.228 171.554C139.008 169.727 138.587 167.986 138.965 166.329C139.205 165.024 140.052 163.887 141.507 162.916ZM141.323 166.991C141.245 167.941 141.589 168.989 142.354 170.135C143.116 171.276 143.953 171.992 144.865 172.281C145.775 172.578 146.651 172.446 147.494 171.883C148.336 171.321 148.8 170.562 148.887 169.606C148.974 168.649 148.635 167.598 147.87 166.452C147.105 165.306 146.264 164.59 145.348 164.304C144.431 164.017 143.552 164.155 142.709 164.717C141.867 165.28 141.405 166.038 141.323 166.991Z" fill="white"/>
<path d="M130.782 169.794L132.983 168.882L137.665 180.186L134.229 181.609L128.492 173.572L130.134 183.305L126.737 184.712L122.055 173.408L124.256 172.497L127.422 180.143C127.514 180.362 127.638 180.67 127.796 181.066C127.956 181.467 128.081 181.775 128.169 181.99L126.38 171.617L128.673 170.667L134.726 179.274C134.638 179.059 134.508 178.753 134.338 178.357C134.169 177.965 134.04 177.659 133.949 177.44L130.782 169.794Z" fill="white"/>
<path d="M109.951 182.026L115.771 180.824L115.135 177.743L108.501 179.114L108.056 176.959L117.137 175.083L119.612 187.065L110.825 188.881L110.386 186.759L116.727 185.449L116.201 182.905L110.381 184.108L109.951 182.026Z" fill="white"/>
<path d="M95.0225 190.287L94.9385 188.122L98.5965 187.981L98.2085 177.919L100.779 177.82L101.168 187.882L104.842 187.74L104.926 189.905L95.0225 190.287Z" fill="white"/>
<path d="M80.9367 182.336L86.8321 183.09L87.2311 179.969L80.5123 179.111L80.7913 176.929L89.9884 178.104L88.4368 190.241L79.5361 189.103L79.8108 186.954L86.2332 187.775L86.5626 185.198L80.6673 184.444L80.9367 182.336Z" fill="white"/>
<path d="M69.8259 179.275L72.3457 180.061L73.7749 175.481L76.16 176.225L72.5151 187.905L66.7862 186.117C65.9723 185.846 65.375 185.549 64.9942 185.228C64.6082 184.904 64.318 184.515 64.1237 184.06C63.9625 183.685 63.864 183.295 63.8281 182.89C63.7923 182.484 63.8461 182.052 63.9896 181.592C64.1627 181.038 64.4733 180.535 64.9214 180.083C65.3679 179.637 65.948 179.404 66.6617 179.383C66.1905 178.998 65.9065 178.57 65.81 178.1C65.7065 177.632 65.7825 176.99 66.038 176.171L66.2828 175.386C66.4493 174.853 66.5411 174.484 66.5582 174.281C66.5887 173.96 66.5101 173.692 66.3221 173.477L66.4136 173.184L69.0998 174.022C69.093 174.304 69.0807 174.529 69.063 174.697C69.0242 175.045 68.9538 175.391 68.8519 175.736L68.529 176.826C68.3071 177.575 68.2895 178.114 68.4762 178.445C68.6575 178.774 69.1074 179.05 69.8259 179.275ZM67.6814 180.936C67.1262 181.006 66.7463 181.369 66.5419 182.024C66.321 182.731 66.4077 183.28 66.802 183.67C67.0233 183.89 67.3981 184.082 67.9263 184.247L70.7631 185.132L71.7423 181.994L68.9769 181.131C68.4275 180.96 67.9956 180.895 67.6814 180.936Z" fill="white"/>
<path d="M61.0272 173.701L58.7568 172.618L59.8213 170.385L62.0916 171.468L61.0272 173.701Z" fill="white"/>
<path d="M52.548 166.742L54.5196 168.079L47.6516 178.205L44.574 176.118L48.1332 166.907L40.9056 173.63L37.8623 171.565L44.7303 161.439L46.7019 162.777L42.0565 169.626C41.9229 169.823 41.7342 170.096 41.4905 170.446C41.2436 170.8 41.0549 171.073 40.9245 171.265L48.6048 164.067L50.6589 165.461L46.7981 175.249C46.9285 175.057 47.1126 174.78 47.3503 174.42C47.5849 174.064 47.769 173.788 47.9026 173.591L52.548 166.742Z" fill="white"/>
<path d="M36.94 154.619L40.6536 158.359L31.9705 166.979L28.2569 163.239C27.7306 162.693 27.349 162.183 27.112 161.709C26.708 160.901 26.5859 160.044 26.7457 159.136C26.8775 158.405 27.1402 157.735 27.5337 157.126C27.9272 156.517 28.3518 155.986 28.8073 155.534C29.9619 154.388 31.1698 153.649 32.431 153.317C34.1348 152.873 35.6378 153.307 36.94 154.619ZM29.1326 159.691C28.9382 160.438 29.2503 161.223 30.0691 162.048L31.73 163.721L37.3969 158.095L35.7361 156.422C34.8861 155.566 33.8713 155.388 32.6917 155.889C32.045 156.164 31.4016 156.62 30.7615 157.255C29.8779 158.132 29.3349 158.944 29.1326 159.691Z" fill="white"/>
<path d="M8.89052 78.2591L8.32682 80.8379L13.014 81.8624L12.4805 84.3033L0.527344 81.6906L1.80889 75.8275C2.00832 74.9931 2.25162 74.3722 2.53892 73.9649C2.82742 73.5521 3.18972 73.2291 3.62592 72.9959C3.98532 72.8026 4.36542 72.6704 4.76612 72.5994C5.16682 72.5284 5.60242 72.5443 6.07272 72.6471C6.64032 72.7712 7.16862 73.0367 7.65742 73.4438C8.14082 73.8497 8.42392 74.4072 8.50682 75.1164C8.84902 74.6134 9.25042 74.2933 9.71092 74.1561C10.1671 74.0122 10.8143 74.0319 11.6522 74.215L12.455 74.3905C13.0011 74.5099 13.3761 74.5692 13.5802 74.5685C13.9025 74.571 14.1627 74.4692 14.3606 74.2633L14.6607 74.3288L14.0598 77.0779C13.7783 77.0957 13.553 77.1031 13.3837 77.1001C13.0343 77.0917 12.6834 77.0518 12.3308 76.9804L11.2163 76.7537C10.4516 76.5979 9.91272 76.6274 9.59952 76.8422C9.28752 77.0516 9.05122 77.5239 8.89052 78.2591ZM7.04862 76.2676C6.93032 75.7206 6.53592 75.3739 5.86562 75.2273C5.14112 75.069 4.60202 75.2032 4.24812 75.63C4.04852 75.8696 3.88962 76.2597 3.77142 76.8003L3.13682 79.7034L6.34812 80.4054L6.96682 77.5752C7.08962 77.013 7.11692 76.5771 7.04862 76.2676Z" fill="white"/>
<path d="M14.0138 60.1779L11.76 65.6774L14.6711 66.8703L17.2396 60.6028L19.275 61.4369L15.759 70.0164L4.4375 65.3767L7.8401 57.0737L9.8448 57.8953L7.3896 63.8863L9.7937 64.8715L12.0475 59.3721L14.0138 60.1779Z" fill="white"/>
<path d="M22.9288 49.596L20.5091 53.3988L22.1766 55.4633L20.7418 57.7184L12.7627 47.4665L14.3134 45.0293L26.9624 47.9417L25.4741 50.2808L22.9288 49.596ZM20.7667 49.0665L15.8848 47.7706L19.1001 51.6857L20.7667 49.0665Z" fill="white"/>
<path d="M20.2539 36.364L21.9675 34.4666L29.4154 41.1928L33.4768 36.6957L35.1093 38.17L29.3344 44.5646L20.2539 36.364Z" fill="white"/>
<path d="M49.0364 20.2845L44.0337 23.4934L45.7323 26.1415L51.4336 22.4844L52.6213 24.336L44.8168 29.342L38.2109 19.0432L45.7638 14.1985L46.9335 16.0221L41.4837 19.5178L42.8864 21.7047L47.8891 18.4959L49.0364 20.2845Z" fill="white"/>
<path d="M60.0395 18.555C60.595 18.32 61.0202 18.0681 61.3151 17.7992C61.8734 17.2866 62.0178 16.7118 61.7483 16.0747C61.591 15.7027 61.3061 15.4837 60.8937 15.4178C60.4834 15.357 59.8968 15.3978 59.1339 15.5402L57.8281 15.7771C56.5437 16.0079 55.6116 16.0627 55.0316 15.9415C54.0523 15.7428 53.3287 15.0905 52.8609 13.9845C52.4341 12.9754 52.4464 11.9818 52.898 11.0037C53.3495 10.0256 54.2862 9.23579 55.7082 8.63439C56.8958 8.13209 58.0411 8.02019 59.1443 8.29859C60.2504 8.56979 61.0771 9.29569 61.6245 10.4761L59.3616 11.4333C59.0341 10.7727 58.5348 10.4161 57.8636 10.3635C57.4169 10.3301 56.9208 10.4287 56.3755 10.6594C55.769 10.9159 55.3365 11.243 55.0781 11.6407C54.8197 12.0384 54.7832 12.4565 54.9686 12.8948C55.1389 13.2974 55.4445 13.5227 55.8853 13.5705C56.1707 13.606 56.7258 13.5545 57.5504 13.416L59.6895 13.061C60.6269 12.9049 61.3844 12.906 61.9621 13.0642C62.859 13.3097 63.5199 13.9345 63.9445 14.9385C64.38 15.9681 64.3472 16.9914 63.846 18.0085C63.3479 19.0183 62.3801 19.8272 60.9429 20.4351C59.475 21.056 58.1794 21.2104 57.0561 20.8984C55.9305 20.5814 55.1199 19.8367 54.6241 18.6645L56.8717 17.7138C57.1608 18.1984 57.4637 18.5239 57.7805 18.6903C58.3589 18.9925 59.1119 18.9474 60.0395 18.555Z" fill="white"/>
<path d="M74.8953 2.75098L75.4062 4.85638L71.8488 5.71958L74.2231 15.5046L71.7224 16.1113L69.3481 6.32638L65.7746 7.19348L65.2637 5.08808L74.8953 2.75098Z" fill="white"/>
<path d="M89.2432 10.6434L84.7455 10.9388L84.0655 13.504L81.3984 13.6792L84.9533 1.18396L87.8358 0.994629L92.9617 12.9197L90.1949 13.1014L89.2432 10.6434ZM88.3926 8.5863L86.553 3.8823L85.2948 8.7897L88.3926 8.5863Z" fill="white"/>
<path d="M107.429 1.59233L107.204 3.7471L103.563 3.3667L102.517 13.3811L99.9577 13.1137L101.004 3.0994L97.3467 2.7173L97.5717 0.5625L107.429 1.59233Z" fill="white"/>
<path d="M119.894 11.3531L114.163 9.77679L113.329 12.8101L119.86 14.6065L119.276 16.7275L110.337 14.2684L113.582 2.47119L122.233 4.85099L121.659 6.93999L115.416 5.22279L114.727 7.72789L120.457 9.30419L119.894 11.3531Z" fill="white"/>
<path d="M139.093 23.1031L135.246 20.7537L133.213 22.4589L130.932 21.0657L141.035 12.8997L143.5 14.4054L140.821 27.1057L138.455 25.6606L139.093 23.1031ZM139.583 20.9317L140.789 16.0269L136.933 19.3135L139.583 20.9317Z" fill="white"/>
<path d="M150.182 34.2197C149.403 34.0752 148.648 33.6728 147.917 33.0127C146.714 31.9259 146.105 30.6189 146.089 29.0916C146.045 27.5306 146.68 26.0231 147.993 24.5692C149.32 23.0989 150.789 22.2856 152.4 22.1291C154.01 21.9727 155.48 22.4954 156.811 23.6971C157.965 24.7393 158.626 25.8693 158.794 27.0871C158.969 28.3045 158.713 29.397 158.026 30.3645L156.159 28.6788C156.576 27.9288 156.616 27.1784 156.28 26.4276C156.09 26.0102 155.804 25.629 155.422 25.2841C154.691 24.6239 153.839 24.3577 152.866 24.4856C151.901 24.6131 150.918 25.2313 149.916 26.3402C148.908 27.4573 148.448 28.4778 148.538 29.4018C148.629 30.3258 148.998 31.0808 149.647 31.6669C150.284 32.2418 150.97 32.53 151.707 32.5317C152.447 32.5293 153.134 32.2729 153.766 31.7627L151.665 29.8656L153.034 28.3501L156.816 31.7661L152.416 36.639L151.159 35.5041L151.992 34.1981C151.237 34.2992 150.634 34.3064 150.182 34.2197Z" fill="white"/>
<path d="M165.395 43.5697L161.76 38.8675L159.271 40.7916L163.413 46.1505L161.673 47.4958L156.002 40.1602L165.682 32.677L171.17 39.7762L169.456 41.1013L165.496 35.9788L163.441 37.5678L167.076 42.27L165.395 43.5697Z" fill="white"/>
<path d="M169.12 60.1217L167.935 57.8563L173.32 49.4003L165.619 53.4283L164.514 51.3173L175.356 45.6465L176.599 48.0223L171.289 56.2987L178.857 52.3399L179.961 54.4509L169.12 60.1217Z" fill="white"/>
<path d="M174.69 72.3803C173.621 71.7576 172.874 70.7674 172.45 69.4098C171.926 67.7299 172.053 66.2411 172.83 64.9434C173.613 63.644 174.948 62.7001 176.834 62.1116C178.873 61.4752 180.615 61.5315 182.06 62.2805C183.318 62.9313 184.177 63.991 184.635 65.4596C185.248 67.4247 185.052 69.0627 184.047 70.3735C183.48 71.1012 182.837 71.5973 182.12 71.8618L181.358 69.4212C181.869 69.088 182.228 68.7528 182.436 68.4155C182.804 67.8135 182.853 67.0766 182.581 66.205C182.304 65.3175 181.726 64.7297 180.848 64.4415C179.975 64.1516 178.883 64.2111 177.573 64.6199C176.263 65.0288 175.364 65.6048 174.877 66.3481C174.397 67.0949 174.288 67.8857 174.548 68.7204C174.815 69.5761 175.299 70.1412 175.999 70.4154C176.378 70.5698 176.893 70.6348 177.547 70.6107L178.301 73.0274C176.962 73.2134 175.758 72.9977 174.69 72.3803Z" fill="white"/>
<path d="M188.963 87.3803L180.881 84.2584L176.317 84.824L176.003 82.2868L180.567 81.7212L187.625 76.5806L187.995 79.5709L183.019 82.7471L188.607 84.5053L188.963 87.3803Z" fill="white"/>
<path d="M9.41113 123.5L13.1817 122.334L14.357 126.268L10.5865 127.434L9.41113 123.5Z" fill="white"/>
<path d="M178.06 123L181.492 124.947L179.433 128.499L176 126.551L178.06 123Z" fill="white"/>
</svg>
