<svg width="120" height="40" viewBox="0 0 120 40" fill="none" xmlns="http://www.w3.org/2000/svg">
<mask id="mask0_1672_336" style="mask-type:luminance" maskUnits="userSpaceOnUse" x="0" y="0" width="120" height="40">
<path d="M120 0H0V40H120V0Z" fill="white"/>
</mask>
<g mask="url(#mask0_1672_336)">
<path d="M100.981 29.6519L95.3772 17.6289L100.915 8.71825C100.946 8.71825 101.077 8.56665 101.047 8.56665H98.9392L92.3522 19.6399V8.56665H90.4902V29.8039H92.3692V22.4909L94.2402 19.4809L98.9872 29.8039H101.029L100.994 29.7119L100.981 29.6519Z" fill="white"/>
<path d="M88.4953 11.7841V12.7302H86.6203V11.5326C86.6203 10.2352 86.2563 10.0596 83.7223 10.0596C81.1883 10.0596 80.7883 10.2352 80.7883 11.4767C80.7883 25.2609 80.8243 26.9459 80.8243 26.9459C80.8243 28.1869 81.1843 28.3629 83.7223 28.3629C86.2603 28.3629 86.6203 28.1869 86.6203 26.8259V25.7039H88.4953V26.6229C88.4953 29.4569 87.9383 29.8399 83.7223 29.8399C79.5063 29.8399 78.9443 29.4409 78.9443 26.6779V11.7242C78.9443 8.92984 79.5063 8.56665 83.7223 8.56665C86.8493 8.56665 87.9683 8.77415 88.3333 10.0436C88.4673 10.6153 88.5223 11.2 88.4953 11.7841L88.3333 11.7562V11.7841H88.4953Z" fill="white"/>
<path d="M76.3099 8.56665V26.591C76.3099 29.433 75.7519 29.8239 71.5669 29.8239C67.3819 29.8239 66.7939 29.425 66.7939 26.591V8.56665H68.6689V26.9299C68.6689 28.1599 69.0329 28.3389 71.5669 28.3389C74.1009 28.3389 74.4349 28.1599 74.4349 26.9299V8.56665H76.3099Z" fill="white"/>
<path d="M59.0509 8.56665H54.3438V21.7399C54.6271 21.5859 54.9512 21.5049 55.2812 21.5049C55.6114 21.5049 55.9354 21.5859 56.2188 21.7399V10.0835H59.0509C61.9189 10.0835 62.3139 10.2951 62.3139 11.7801V26.6189C62.3139 28.0759 61.9189 28.2869 59.0509 28.2869H56.2363V24.6939C55.953 24.8479 55.6291 24.9299 55.299 24.9299C54.9687 24.9299 54.6446 24.8479 54.3612 24.6939V29.8239H59.0689C63.5829 29.8239 64.2069 29.4249 64.2069 26.6309V11.7522C64.1889 8.96184 63.5659 8.56665 59.0509 8.56665Z" fill="white"/>
<path d="M50.9664 14.8021C50.9664 12.9458 50.6064 12.7023 48.0681 12.7023C45.6309 12.7023 45.3014 12.9777 45.3014 14.8939V29.788H43.501V11.5645H45.2796V12.0516C45.7757 11.3809 46.7638 11.2532 48.6741 11.2532C52.1873 11.2532 52.6922 11.6524 52.6922 14.4469V17.365H50.9137C50.9137 17.365 50.9664 15.9438 50.9664 14.8021Z" fill="white"/>
<path d="M32.084 14.3753C32.084 11.6208 32.6109 11.2615 36.594 11.2615C41.1082 11.2615 41.1741 11.6208 41.1741 14.3753V29.804H39.3956V28.978C38.9565 29.908 38.0124 29.824 35.8386 29.824C32.3781 29.824 31.917 29.425 31.917 26.679V23.026C31.917 20.663 32.3562 20.271 35.8693 19.884C38.9433 19.553 39.3825 20.06 39.3825 17.964V14.1357C39.3825 12.8463 39.2814 12.6667 36.6158 12.6667C34.2445 12.6667 33.9152 12.8463 33.9152 14.1357C33.9152 15.6606 33.88 17.609 33.88 17.609H32.1014L32.084 14.3753ZM39.3605 20.603C38.8336 20.962 37.8454 20.842 36.001 21.05C33.959 21.289 33.6956 21.529 33.6956 23.026C33.6956 26.052 33.6648 26.319 33.6648 26.319C33.6297 28.176 33.9942 28.415 36.528 28.415C39.0618 28.415 39.3913 28.244 39.3913 26.387C39.3913 26.387 39.3913 22.104 39.3913 20.579L39.3605 20.603Z" fill="white"/>
<path d="M20.3193 29.8039V8.56665H22.0758V12.0676C22.6028 11.3809 23.626 11.2692 25.5889 11.2692C29.3085 11.2692 29.8048 11.6684 29.8048 14.4109V26.6579C29.8048 29.4529 29.3085 29.8319 25.5889 29.8319C23.6128 29.8319 22.5896 29.6799 22.0758 28.9939V29.7919L20.3193 29.8039ZM22.0758 26.2109C22.0758 28.2069 22.4402 28.4869 24.9741 28.4869C27.6749 28.4869 28.0481 28.219 28.0481 26.271V14.7622C28.0481 12.9378 27.6837 12.6983 24.9741 12.6983C22.4402 12.6983 22.0758 12.9658 22.0758 14.854V26.2109Z" fill="white"/>
<path d="M48.5691 4.04395H47.6338V11.2855H48.5691V4.04395Z" fill="white"/>
<path d="M37.0068 29.804H36.0713V35.928H37.0068V29.804Z" fill="white"/>
<path d="M45.1966 23.641V22.79H39.3691V23.641H45.1966Z" fill="white"/>
<path d="M75.8354 2.34351H74.9004V4.86651H75.8354V2.34351Z" fill="white"/>
<path d="M102.017 29.8041V28.9541H100.642V29.8041H102.017Z" fill="white"/>
<path d="M115.604 29.8041V28.9541H105.504V29.8041H115.604Z" fill="white"/>
<path d="M117.194 38.2631H118.13V31.4131H117.194V38.2631Z" fill="white"/>
<path d="M1.76074 33.294H2.93324V22.719H1.76074V33.294Z" fill="white"/>
<path d="M4.11426 20.5869V21.4369H20.6568V20.5869H4.11426Z" fill="white"/>
<path d="M87.2441 37.417V38.268H117.659V37.417H87.2441Z" fill="white"/>
<path d="M1.77344 32.4431V33.2931H36.0704V32.4431H1.77344Z" fill="white"/>
<path d="M83.7182 2.34351H82.7822V8.56711H83.7182V2.34351Z" fill="white"/>
<path d="M85.4702 29.7439H84.5352V35.7799H85.4702V29.7439Z" fill="white"/>
<path d="M75.4929 23.641V22.79H57.1719V23.641H75.4929Z" fill="white"/>
<path d="M83.7219 2.55904V1.70874H50.1055V2.55904H83.7219Z" fill="white"/>
<path d="M55.2972 25.3451C54.8332 25.3451 54.3797 25.2201 53.994 24.9861C53.6082 24.7511 53.3077 24.4181 53.1302 24.0281C52.9529 23.6391 52.9067 23.2101 52.9975 22.7961C53.0883 22.3831 53.3122 22.0031 53.6406 21.7051C53.969 21.4071 54.3873 21.2041 54.8424 21.1221C55.2976 21.0401 55.7693 21.0831 56.1977 21.2451C56.6261 21.4071 56.992 21.6811 57.2494 22.0321C57.5064 22.3831 57.6434 22.7961 57.6424 23.2181C57.6424 23.4971 57.5814 23.7741 57.4634 24.0331C57.3454 24.2911 57.1724 24.5261 56.9552 24.7231C56.7373 24.9211 56.4788 25.0781 56.1942 25.1841C55.9098 25.2911 55.6049 25.3461 55.2972 25.3451ZM55.2972 21.9401C55.0193 21.9401 54.7476 22.0151 54.5165 22.1551C54.2854 22.2961 54.1053 22.4951 53.9989 22.7291C53.8925 22.9621 53.8648 23.2191 53.9189 23.4671C53.9732 23.7141 54.107 23.9421 54.3036 24.1211C54.5001 24.2991 54.7505 24.4211 55.023 24.4701C55.2957 24.5201 55.5782 24.4941 55.835 24.3981C56.0917 24.3011 56.3112 24.1371 56.4657 23.9271C56.6201 23.7171 56.7025 23.4701 56.7025 23.2181C56.7025 22.8791 56.5544 22.5541 56.2909 22.3141C56.0273 22.0751 55.67 21.9401 55.2972 21.9401Z" fill="white"/>
<path d="M103.888 31.5089C103.424 31.5089 102.971 31.3839 102.585 31.1499C102.199 30.9149 101.899 30.5819 101.721 30.1929C101.544 29.8029 101.498 29.3749 101.588 28.9609C101.679 28.5479 101.902 28.1679 102.23 27.8699C102.558 27.5719 102.976 27.3689 103.431 27.2859C103.885 27.2039 104.357 27.2459 104.785 27.4079C105.214 27.5689 105.58 27.8419 105.838 28.1929C106.095 28.5429 106.233 28.9559 106.233 29.3769C106.233 29.9419 105.986 30.4849 105.546 30.8839C105.106 31.2839 104.51 31.5089 103.888 31.5089ZM103.888 28.0999C103.61 28.0999 103.338 28.1749 103.107 28.3149C102.876 28.4549 102.696 28.6549 102.59 28.8879C102.483 29.1219 102.455 29.3779 102.51 29.6259C102.564 29.8739 102.698 30.1019 102.894 30.2799C103.091 30.4589 103.341 30.5809 103.614 30.6299C103.886 30.6789 104.169 30.6539 104.426 30.5569C104.683 30.4609 104.902 30.2969 105.056 30.0869C105.211 29.8769 105.293 29.6299 105.293 29.3769C105.292 29.0389 105.144 28.7139 104.88 28.4749C104.617 28.2359 104.26 28.1009 103.888 28.0999Z" fill="white"/>
<path d="M85.0049 39.9519C84.5419 39.9519 84.0889 39.8269 83.7039 39.5929C83.3189 39.3599 83.0189 39.0269 82.8419 38.6389C82.6649 38.2499 82.6189 37.8219 82.7089 37.4089C82.7989 36.9959 83.0219 36.6169 83.3499 36.3199C83.6769 36.0219 84.0939 35.8199 84.5479 35.7369C85.0019 35.6549 85.4729 35.6979 85.8999 35.8579C86.3279 36.0199 86.6939 36.2919 86.9509 36.6419C87.2079 36.9919 87.3449 37.4029 87.3449 37.8239C87.3439 38.3879 87.0969 38.9289 86.6589 39.3279C86.2199 39.7259 85.6249 39.9509 85.0049 39.9519ZM85.0049 36.5469C84.7269 36.5469 84.4549 36.6219 84.2239 36.7619C83.9929 36.9019 83.8129 37.1019 83.7059 37.3349C83.5999 37.5689 83.5719 37.8259 83.6259 38.0739C83.6809 38.3209 83.8149 38.5489 84.0109 38.7279C84.2079 38.9059 84.4579 39.0279 84.7309 39.0769C85.0029 39.1259 85.2859 39.1009 85.5419 39.0039C85.7989 38.9079 86.0189 38.7439 86.1729 38.5339C86.3279 38.3239 86.4099 38.0769 86.4099 37.8239C86.4049 37.4879 86.2549 37.1669 85.9919 36.9309C85.7289 36.6949 85.3739 36.5629 85.0049 36.5629V36.5469Z" fill="white"/>
<path d="M2.34942 23.142C1.88522 23.142 1.43122 23.018 1.04492 22.784C0.658619 22.55 0.357419 22.217 0.179319 21.827C0.00131857 21.438 -0.04548 21.009 0.04482 20.595C0.13522 20.181 0.358618 19.801 0.686818 19.503C1.01512 19.204 1.43332 19.001 1.88862 18.919C2.34392 18.837 2.81582 18.879 3.24452 19.041C3.67312 19.203 4.03932 19.477 4.29672 19.828C4.55402 20.179 4.69092 20.592 4.69002 21.014C4.68892 21.578 4.44192 22.118 4.00322 22.517C3.56452 22.916 2.96982 23.141 2.34942 23.142ZM2.34942 19.736C2.07152 19.736 1.79982 19.811 1.56872 19.952C1.33762 20.092 1.15752 20.292 1.05112 20.525C0.944822 20.758 0.916919 21.015 0.971219 21.263C1.02542 21.511 1.15922 21.739 1.35572 21.917C1.55232 22.096 1.80272 22.217 2.07532 22.267C2.34792 22.316 2.63042 22.291 2.88722 22.194C3.14402 22.097 3.36342 21.934 3.51782 21.724C3.67232 21.513 3.75472 21.267 3.75472 21.014C3.75472 20.675 3.60662 20.35 3.34312 20.111C3.07952 19.871 2.72212 19.736 2.34942 19.736Z" fill="white"/>
<path d="M75.3701 8.56667C76.4061 8.56667 77.2451 7.80347 77.2451 6.86207C77.2451 5.92057 76.4061 5.15747 75.3701 5.15747C74.3341 5.15747 73.4951 5.92057 73.4951 6.86207C73.4951 7.80347 74.3341 8.56667 75.3701 8.56667Z" fill="#141A66"/>
<path d="M75.3702 8.98987C74.9072 8.98987 74.4552 8.86507 74.0702 8.63127C73.6852 8.39747 73.3852 8.06517 73.2072 7.67637C73.0302 7.28757 72.9841 6.85977 73.0741 6.44697C73.1651 6.03427 73.3871 5.65507 73.7151 5.35757C74.0421 5.05997 74.4592 4.85737 74.9132 4.77527C75.3672 4.69317 75.8381 4.73527 76.2661 4.89627C76.6931 5.05737 77.0592 5.33007 77.3162 5.67997C77.5732 6.02987 77.7111 6.44127 77.7111 6.86207C77.7111 7.42637 77.4642 7.96757 77.0252 8.36667C76.5862 8.76567 75.9912 8.98987 75.3702 8.98987ZM75.3702 5.58467C75.0922 5.58467 74.8201 5.65957 74.5891 5.79997C74.3581 5.94027 74.1781 6.13977 74.0721 6.37327C73.9651 6.60667 73.9371 6.86347 73.9921 7.11127C74.0461 7.35907 74.1801 7.58678 74.3761 7.76538C74.5731 7.94408 74.8232 8.06567 75.0962 8.11497C75.3682 8.16427 75.6511 8.13897 75.9081 8.04227C76.1651 7.94557 76.3842 7.78187 76.5382 7.57177C76.6932 7.36177 76.7752 7.11477 76.7752 6.86207C76.7742 6.52357 76.6261 6.19927 76.3621 5.95997C76.0991 5.72067 75.7422 5.58567 75.3702 5.58467Z" fill="white"/>
<path d="M117.659 31.0821C118.694 31.0821 119.534 30.3191 119.534 29.3771C119.534 28.4361 118.694 27.6731 117.659 27.6731C116.623 27.6731 115.784 28.4361 115.784 29.3771C115.784 30.3191 116.623 31.0821 117.659 31.0821Z" fill="#149939"/>
<path d="M117.659 31.5089C117.195 31.5099 116.741 31.3849 116.355 31.1519C115.969 30.9179 115.668 30.5849 115.49 30.1959C115.311 29.8059 115.264 29.3769 115.354 28.9639C115.444 28.5499 115.667 28.1699 115.995 27.8709C116.323 27.5729 116.741 27.3689 117.196 27.2869C117.651 27.2039 118.122 27.2459 118.551 27.4069C118.98 27.5679 119.346 27.8419 119.604 28.1919C119.862 28.5429 120 28.9549 120 29.3769C120 29.9419 119.753 30.4829 119.315 30.8829C118.876 31.2829 118.28 31.5079 117.659 31.5089ZM117.659 28.0999C117.381 28.0999 117.11 28.1749 116.878 28.3149C116.647 28.4549 116.467 28.6549 116.361 28.8879C116.255 29.1219 116.227 29.3779 116.281 29.6259C116.335 29.8739 116.469 30.1019 116.666 30.2799C116.862 30.4589 117.112 30.5809 117.385 30.6299C117.658 30.6789 117.94 30.6539 118.197 30.5569C118.454 30.4609 118.673 30.2969 118.828 30.0869C118.982 29.8769 119.064 29.6299 119.064 29.3769C119.063 29.0389 118.915 28.7139 118.652 28.4749C118.388 28.2359 118.032 28.1009 117.659 28.0999Z" fill="white"/>
<path d="M36.5412 39.577C37.5768 39.577 38.4163 38.813 38.4163 37.872C38.4163 36.931 37.5768 36.167 36.5412 36.167C35.5056 36.167 34.666 36.931 34.666 37.872C34.666 38.813 35.5056 39.577 36.5412 39.577Z" fill="#FBE000"/>
<path d="M36.5409 40C36.078 40 35.6255 39.875 35.2405 39.641C34.8556 39.408 34.5556 39.075 34.3784 38.686C34.2013 38.298 34.1549 37.87 34.2452 37.457C34.3356 37.044 34.5585 36.665 34.8859 36.368C35.2132 36.07 35.6303 35.867 36.0843 35.785C36.5383 35.703 37.0088 35.745 37.4366 35.906C37.8642 36.067 38.2298 36.34 38.487 36.69C38.7442 37.04 38.8814 37.451 38.8814 37.872C38.8814 38.436 38.6348 38.978 38.1959 39.377C37.757 39.776 37.1616 40 36.5409 40ZM36.5409 36.595C36.2629 36.595 35.9912 36.67 35.7601 36.81C35.5291 36.95 35.3488 37.15 35.2426 37.383C35.1362 37.617 35.1084 37.874 35.1627 38.121C35.2168 38.369 35.3507 38.597 35.5472 38.775C35.7437 38.954 35.994 39.076 36.2667 39.125C36.5392 39.174 36.8219 39.149 37.0787 39.052C37.3355 38.956 37.5549 38.792 37.7093 38.582C37.8637 38.372 37.9461 38.125 37.9461 37.872C37.9449 37.534 37.7965 37.209 37.5333 36.97C37.27 36.731 36.9132 36.596 36.5409 36.595Z" fill="white"/>
<path d="M48.1036 3.8406C49.1392 3.8406 49.9788 3.0774 49.9788 2.136C49.9788 1.1946 49.1392 0.431396 48.1036 0.431396C47.068 0.431396 46.2285 1.1946 46.2285 2.136C46.2285 3.0774 47.068 3.8406 48.1036 3.8406Z" fill="#E80025"/>
<path d="M48.1044 4.2635C47.6401 4.2643 47.1861 4.13981 46.7998 3.90591C46.4136 3.67191 46.1124 3.33901 45.9342 2.94941C45.7562 2.55971 45.7094 2.1307 45.7998 1.7168C45.8901 1.3029 46.1136 0.922704 46.4417 0.624404C46.77 0.326004 47.1882 0.122908 47.6436 0.0408083C48.0988 -0.0413917 48.5706 0.00120829 48.9994 0.163008C49.4281 0.324908 49.7942 0.598704 50.0516 0.949904C50.3089 1.3011 50.4458 1.7138 50.4449 2.1357C50.4438 2.6997 50.1968 3.24031 49.7581 3.63911C49.3194 4.03791 48.7248 4.2624 48.1044 4.2635ZM48.1044 0.858306C47.8264 0.858306 47.5548 0.933207 47.3236 1.07361C47.0925 1.21391 46.9124 1.4135 46.8061 1.6469C46.6997 1.8803 46.6718 2.13711 46.7261 2.38491C46.7804 2.63271 46.9141 2.86041 47.1106 3.03901C47.3072 3.21771 47.5576 3.33931 47.8302 3.38861C48.1028 3.43791 48.3853 3.41261 48.6421 3.31591C48.8989 3.21921 49.1184 3.0555 49.2728 2.8454C49.4272 2.6354 49.5096 2.3884 49.5096 2.1357C49.5084 1.7973 49.36 1.4729 49.0968 1.2336C48.8334 0.994303 48.4766 0.859306 48.1044 0.858306Z" fill="white"/>
</g>
</svg>
