<svg width="191" height="191" viewBox="0 0 191 191" fill="none" xmlns="http://www.w3.org/2000/svg">
<path d="M177.775 101.675L178.223 96.1479L190.419 97.1379L189.938 103.062C189.794 104.555 189.275 105.579 188.381 106.134C187.832 106.467 187.196 106.604 186.474 106.545C185.729 106.485 185.146 106.249 184.724 105.837C184.487 105.607 184.281 105.279 184.104 104.854C183.827 105.459 183.431 105.898 182.914 106.173C182.398 106.453 181.789 106.565 181.088 106.508C180.366 106.449 179.733 106.214 179.188 105.804C178.827 105.541 178.53 105.226 178.299 104.857C178.033 104.441 177.867 103.962 177.8 103.418C177.732 102.879 177.724 102.298 177.775 101.675ZM183.149 102.053L183.395 99.0169L180.144 98.7529L179.901 101.748C179.857 102.283 179.895 102.705 180.014 103.014C180.235 103.576 180.721 103.888 181.471 103.949C182.105 104 182.562 103.774 182.842 103.269C182.998 102.987 183.1 102.582 183.149 102.053ZM185.371 103.508C185.543 103.855 185.885 104.049 186.398 104.091C186.966 104.137 187.359 103.946 187.577 103.52C187.735 103.15 187.838 102.669 187.885 102.079L188.103 99.3989L185.414 99.1799L185.171 102.175C185.128 102.71 185.194 103.154 185.371 103.508Z" fill="white"/>
<path d="M177.567 117.799L178.697 113.435L176.474 111.986L177.143 109.398L187.895 116.691L187.171 119.487L174.24 120.616L174.935 117.932L177.567 117.799ZM179.787 117.636L184.831 117.364L180.565 114.631L179.787 117.636Z" fill="white"/>
<path d="M175.55 130.396L176.632 127.989L172.256 126.022L173.281 123.743L184.44 128.76L181.979 134.234C181.612 135.009 181.246 135.567 180.881 135.906C180.514 136.251 180.093 136.492 179.618 136.631C179.227 136.746 178.827 136.797 178.421 136.784C178.014 136.771 177.591 136.666 177.152 136.468C176.622 136.23 176.16 135.861 175.765 135.362C175.376 134.866 175.213 134.262 175.278 133.551C174.84 133.973 174.381 134.203 173.902 134.243C173.426 134.29 172.797 134.137 172.015 133.785L171.265 133.448C170.755 133.219 170.401 133.084 170.201 133.043C169.886 132.974 169.61 133.02 169.374 133.181L169.094 133.055L170.248 130.488C170.527 130.529 170.749 130.568 170.914 130.606C171.254 130.686 171.589 130.797 171.92 130.94L172.964 131.391C173.68 131.701 174.213 131.783 174.564 131.637C174.913 131.496 175.241 131.083 175.55 130.396ZM176.942 132.724C176.945 133.284 177.26 133.705 177.886 133.986C178.562 134.29 179.117 134.27 179.551 133.925C179.796 133.732 180.032 133.382 180.259 132.878L181.477 130.167L178.479 128.82L177.291 131.462C177.055 131.987 176.939 132.408 176.942 132.724Z" fill="white"/>
<path d="M164.473 140.792L167.415 136.419L177.566 143.25L174.624 147.623C174.191 148.245 173.766 148.719 173.347 149.044C172.634 149.599 171.817 149.886 170.896 149.906C170.153 149.92 169.444 149.793 168.77 149.527C168.096 149.26 167.493 148.947 166.96 148.589C165.61 147.68 164.649 146.64 164.077 145.468C163.309 143.884 163.441 142.325 164.473 140.792ZM170.973 147.457C171.743 147.502 172.453 147.042 173.102 146.078L174.418 144.122L167.793 139.664L166.477 141.62C165.803 142.621 165.827 143.651 166.548 144.71C166.945 145.29 167.517 145.832 168.266 146.336C169.299 147.031 170.201 147.405 170.973 147.457Z" fill="white"/>
<path d="M157.899 156.444L163.35 161.625L161.56 163.508L156.109 158.327C155.166 157.431 154.572 156.587 154.324 155.795C153.88 154.335 154.388 152.836 155.848 151.3C157.308 149.764 158.781 149.178 160.266 149.544C161.069 149.75 161.943 150.301 162.885 151.197L168.337 156.378L166.547 158.261L161.096 153.081C160.486 152.501 159.972 152.15 159.554 152.028C158.843 151.78 158.129 152.033 157.413 152.787C156.7 153.537 156.485 154.261 156.769 154.958C156.913 155.369 157.289 155.865 157.899 156.444Z" fill="white"/>
<path d="M143.283 163.923C143.517 162.708 144.204 161.675 145.345 160.826C146.757 159.776 148.204 159.402 149.685 159.707C151.171 160.015 152.503 160.962 153.683 162.547C154.958 164.26 155.482 165.923 155.253 167.535C155.056 168.937 154.34 170.098 153.106 171.017C151.454 172.246 149.844 172.603 148.274 172.088C147.4 171.794 146.719 171.352 146.232 170.762L148.283 169.236C148.766 169.607 149.201 169.835 149.588 169.92C150.278 170.068 150.99 169.87 151.722 169.325C152.468 168.77 152.832 168.03 152.813 167.106C152.797 166.186 152.38 165.176 151.56 164.075C150.741 162.974 149.9 162.317 149.038 162.103C148.174 161.897 147.391 162.056 146.69 162.578C145.971 163.113 145.598 163.756 145.571 164.508C145.55 164.916 145.66 165.424 145.899 166.033L143.868 167.545C143.249 166.343 143.054 165.135 143.283 163.923Z" fill="white"/>
<path d="M128.682 171.203L131.612 169.712L137.403 172.763L137.922 171.093L136.065 167.445L138.307 166.305L143.857 177.209L141.615 178.35L139.33 173.859L137.406 180.492L134.462 181.991L136.644 175.226L128.682 171.203Z" fill="white"/>
<path d="M126.562 174.67L124.191 175.51L123.366 173.178L125.737 172.339L126.562 174.67Z" fill="white"/>
<path d="M113.397 175.715C115.11 175.361 116.515 175.557 117.613 176.302C119.063 177.194 120.01 178.717 120.455 180.868C120.908 183.063 120.642 184.836 119.655 186.187C118.943 187.306 117.73 188.042 116.018 188.396C114.305 188.75 112.9 188.554 111.802 187.809C110.367 186.959 109.422 185.436 108.968 183.241C108.524 181.09 108.788 179.318 109.76 177.924C110.472 176.805 111.685 176.069 113.397 175.715ZM111.697 179.423C111.268 180.274 111.193 181.375 111.472 182.724C111.75 184.068 112.257 185.045 112.993 185.656C113.726 186.273 114.588 186.479 115.579 186.275C116.571 186.07 117.287 185.54 117.726 184.687C118.166 183.833 118.246 182.731 117.967 181.382C117.688 180.033 117.178 179.053 116.436 178.444C115.694 177.834 114.828 177.632 113.836 177.837C112.844 178.041 112.131 178.57 111.697 179.423Z" fill="white"/>
<path d="M94.1621 178.081L96.7171 178.002L101.98 186.534L101.712 177.848L104.093 177.774L104.471 190.004L101.791 190.086L96.6571 181.699L96.9211 190.237L94.5401 190.31L94.1621 178.081Z" fill="white"/>
<path d="M88.0674 190.085L85.5327 189.751L86.8436 179.801L80.8359 179.01L81.1233 176.829L89.6657 177.954L88.0674 190.085Z" fill="white"/>
<path d="M74.6988 187.984L72.2373 187.357L75.2579 175.5L77.7193 176.127L74.6988 187.984Z" fill="white"/>
<path d="M61.3136 170.702L63.6865 171.654L65.0891 181.58L68.3244 173.514L70.5355 174.401L65.9807 185.757L63.4922 184.759L62.1496 175.017L58.9699 182.945L56.7588 182.058L61.3136 170.702Z" fill="white"/>
<path d="M47.5083 169.15L52.5918 172.229L54.2217 169.538L48.4283 166.029L49.5679 164.147L57.4985 168.951L51.1594 179.416L43.4844 174.767L44.6069 172.914L50.1448 176.269L51.4909 174.046L46.4074 170.967L47.5083 169.15Z" fill="white"/>
<path d="M21.1626 133.467C22.3353 133.863 23.2651 134.683 23.952 135.929C24.802 137.469 24.976 138.953 24.474 140.381C23.9672 141.81 22.8488 143.002 21.119 143.957C19.2486 144.988 17.5304 145.282 15.9644 144.838C14.6014 144.452 13.5483 143.586 12.8053 142.239C11.8109 140.436 11.675 138.792 12.3976 137.306C12.8075 136.48 13.3374 135.865 13.9874 135.462L15.2223 137.701C14.7889 138.13 14.5041 138.53 14.3681 138.902C14.1275 139.566 14.2277 140.297 14.6687 141.097C15.1178 141.911 15.8014 142.371 16.7197 142.478C17.6331 142.587 18.6907 142.31 19.8923 141.647C21.094 140.984 21.859 140.24 22.1872 139.414C22.5079 138.586 22.457 137.79 22.0347 137.024C21.6017 136.239 21.0148 135.782 20.274 135.654C19.8721 135.578 19.3536 135.618 18.7183 135.773L17.4955 133.556C18.7702 133.105 19.9925 133.076 21.1626 133.467Z" fill="white"/>
<path d="M13.2716 124.903L14.1336 127.398L18.6684 125.831L19.4843 128.192L7.91974 132.188L5.95994 126.516C5.69554 125.699 5.57984 125.043 5.61294 124.545C5.64424 124.043 5.78524 123.578 6.03614 123.152C6.24224 122.8 6.49794 122.489 6.80294 122.22C7.10804 121.95 7.48814 121.737 7.94314 121.58C8.49234 121.39 9.08164 121.342 9.71094 121.434C10.3349 121.529 10.867 121.858 11.3072 122.42C11.3373 121.812 11.5132 121.33 11.8348 120.973C12.1493 120.612 12.712 120.292 13.5227 120.012L14.2995 119.744C14.8277 119.561 15.1788 119.416 15.3526 119.31C15.6291 119.144 15.7982 118.921 15.8599 118.643L16.1502 118.542L17.0691 121.202C16.8381 121.364 16.6496 121.487 16.5035 121.573C16.2009 121.748 15.8805 121.897 15.5423 122.019L14.4729 122.406C13.739 122.672 13.2943 122.977 13.1388 123.324C12.9815 123.665 13.0258 124.191 13.2716 124.903ZM10.662 124.162C10.2761 123.757 9.75884 123.666 9.11024 123.89C8.40944 124.132 8.01904 124.528 7.93934 125.076C7.89364 125.385 7.96124 125.801 8.14194 126.324L9.11234 129.132L12.2192 128.059L11.2732 125.321C11.0852 124.777 10.8815 124.391 10.662 124.162Z" fill="white"/>
<path d="M14.6565 112.737L15.0129 115.092L2.91533 116.923L2.35892 113.246L11.5384 109.607L1.6957 108.863L1.14551 105.228L13.2431 103.397L13.5996 105.752L5.41682 106.991C5.18162 107.026 4.85292 107.073 4.43072 107.132C4.00312 107.191 3.67442 107.238 3.44462 107.272L13.9436 108.026L14.3149 110.48L4.50652 114.29C4.73632 114.255 5.06422 114.202 5.49012 114.132C5.91062 114.063 6.23852 114.011 6.47382 113.975L14.6565 112.737Z" fill="white"/>
<path d="M11.6496 86.9554C11.7192 86.3562 11.7097 85.8621 11.6212 85.473C11.4507 84.7345 11.0219 84.3254 10.3348 84.2456C9.93348 84.199 9.60248 84.3388 9.34178 84.6651C9.08648 84.992 8.83268 85.5224 8.58028 86.2563L8.14238 87.5091C7.70968 88.7401 7.29758 89.5781 6.90608 90.0229C6.25028 90.7768 5.32598 91.0845 4.13308 90.9459C3.04468 90.8195 2.18645 90.3187 1.55829 89.4435C0.93013 88.5683 0.70512 87.3639 0.88325 85.8303C1.03201 84.5495 1.49955 83.4979 2.28587 82.6756C3.06738 81.8472 4.10648 81.486 5.40338 81.592L5.11988 84.0326C4.38368 83.9917 3.82728 84.2502 3.45048 84.8081C3.20108 85.1803 3.04228 85.6604 2.97395 86.2486C2.89797 86.9027 2.96924 87.4402 3.18778 87.8612C3.40628 88.2821 3.75188 88.52 4.22468 88.5749C4.65888 88.6254 5.00558 88.4706 5.26468 88.1108C5.43628 87.88 5.66528 87.3718 5.95148 86.5861L6.69768 84.5502C7.02418 83.6577 7.39868 82.9993 7.82128 82.5748C8.47728 81.9156 9.34668 81.6489 10.4296 81.7747C11.5399 81.9037 12.4139 82.4369 13.0516 83.3745C13.6843 84.3059 13.9107 85.5467 13.7306 87.0968C13.5468 88.6799 13.0421 89.8832 12.2167 90.7065C11.3857 91.5292 10.3381 91.8672 9.07378 91.7203L9.35538 89.2962C9.91948 89.2837 10.3521 89.1808 10.6531 88.9873C11.2012 88.6331 11.5334 87.9558 11.6496 86.9554Z" fill="white"/>
<path d="M5.46664 65.6577L11.699 71.6763L16.1236 72.9295L15.4269 75.3894L11.0023 74.1362L2.50098 76.1282L3.32214 73.229L9.14174 72.2374L4.67714 68.4451L5.46664 65.6577Z" fill="white"/>
<path d="M18.407 61.3909C18.6605 60.8435 18.8061 60.3712 18.8437 59.9739C18.9127 59.2192 18.6333 58.6965 18.0056 58.4058C17.639 58.236 17.2809 58.2653 16.9312 58.4937C16.5866 58.7244 16.1796 59.1488 15.7104 59.767L14.9026 60.82C14.1066 61.854 13.4532 62.521 12.9422 62.8211C12.0835 63.3321 11.1093 63.3353 10.0197 62.8307C9.02538 62.3702 8.36678 61.6261 8.04378 60.5984C7.72088 59.5707 7.88378 58.3563 8.53258 56.9553C9.07438 55.7853 9.84738 54.9327 10.8514 54.3975C11.8527 53.855 12.9528 53.8369 14.1514 54.3432L13.1189 56.5727C12.4325 56.3036 11.823 56.3751 11.2907 56.7872C10.9375 57.0627 10.6364 57.4691 10.3876 58.0064C10.1109 58.604 10.0105 59.1369 10.0864 59.605C10.1623 60.0732 10.4162 60.4072 10.8481 60.6072C11.2448 60.7909 11.6224 60.7524 11.9811 60.4916C12.2163 60.3261 12.5927 59.9149 13.1103 59.2581L14.4557 57.5577C15.0449 56.8121 15.6066 56.3038 16.1407 56.0328C16.9699 55.6118 17.8791 55.6304 18.8684 56.0885C19.8827 56.5582 20.5461 57.3381 20.8586 58.428C21.1683 59.5106 20.9953 60.76 20.3395 62.176C19.6698 63.6222 18.8142 64.6073 17.7726 65.1312C16.7261 65.6528 15.6253 65.6462 14.4704 65.1113L15.4959 62.8968C16.0356 63.0614 16.4787 63.0989 16.8251 63.0093C17.4565 62.8443 17.9838 62.3048 18.407 61.3909Z" fill="white"/>
<path d="M18.6711 39.9441L20.473 41.147L18.4404 44.1915L26.8145 49.7822L25.3857 51.9223L17.0116 46.3316L14.9698 49.39L13.168 48.187L18.6711 39.9441Z" fill="white"/>
<path d="M32.2498 34.4829L28.2503 38.8792L30.5775 40.9962L35.1355 35.9859L36.7626 37.4661L30.5233 44.3247L21.4727 36.0912L27.5109 29.4536L29.1135 30.9115L24.7566 35.7009L26.6785 37.4492L30.6779 33.0529L32.2498 34.4829Z" fill="white"/>
<path d="M41.0661 33.2974L39.1813 34.7544L31.6982 25.0742L34.6403 22.7998L42.2843 29.0507L38.1472 20.0888L41.0565 17.8398L48.5397 27.52L46.6549 28.977L41.5934 22.4294C41.4478 22.2412 41.2469 21.9768 40.9907 21.6363C40.7311 21.2914 40.5302 21.027 40.3881 20.8431L44.8358 30.3833L42.8721 31.9012L34.773 25.1838C34.9152 25.3677 35.1204 25.6287 35.3888 25.9668C35.6538 26.3005 35.8591 26.5615 36.0046 26.7498L41.0661 33.2974Z" fill="white"/>
<path d="M53.502 10.5016L55.8148 9.45142L60.8735 20.5919L58.5607 21.6421L53.502 10.5016Z" fill="white"/>
<path d="M70.2155 4.11084L70.8687 6.17654L67.3784 7.28024L70.4142 16.8805L67.9607 17.6563L64.9249 8.05604L61.4188 9.16474L60.7656 7.09904L70.2155 4.11084Z" fill="white"/>
<path d="M83.1582 1.50962L85.6864 1.26514L86.864 13.4437L84.3358 13.6882L83.1582 1.50962Z" fill="white"/>
<path d="M101.796 13.1673L99.2405 13.0785L94.5475 4.2193L94.2465 12.9049L91.8652 12.8222L92.2901 0.594238L94.9695 0.687348L99.5425 9.3929L99.8395 0.856568L102.221 0.939298L101.796 13.1673Z" fill="white"/>
<path d="M111.067 14.4551L105.905 13.3885L108.381 1.40625L113.543 2.47281C114.283 2.63705 114.883 2.85141 115.343 3.1159C116.126 3.5658 116.701 4.2131 117.069 5.0576C117.363 5.74 117.514 6.4437 117.523 7.1687C117.531 7.8937 117.47 8.5706 117.341 9.1992C117.011 10.7925 116.413 12.0759 115.545 13.0493C114.37 14.3605 112.877 14.8291 111.067 14.4551ZM114.773 5.914C114.523 5.1841 113.828 4.7017 112.69 4.4665L110.382 3.9895L108.766 11.8097L111.074 12.2867C112.256 12.5308 113.2 12.1184 113.907 11.0495C114.294 10.4627 114.578 9.7276 114.761 8.8442C115.013 7.6248 115.017 6.6481 114.773 5.914Z" fill="white"/>
<path d="M128.579 14.7702L131.352 7.77975L133.767 8.73785L130.994 15.7283C130.514 16.9371 129.953 17.804 129.31 18.3288C128.121 19.2858 126.541 19.3734 124.571 18.5918C122.601 17.8101 121.508 16.6623 121.294 15.1482C121.185 14.3253 121.371 13.3095 121.851 12.1008L124.624 5.11035L127.039 6.06845L124.266 13.0589C123.956 13.8408 123.822 14.4485 123.864 14.882C123.899 15.6341 124.4 16.202 125.367 16.5857C126.329 16.9673 127.08 16.8964 127.621 16.3728C127.95 16.0863 128.269 15.552 128.579 14.7702Z" fill="white"/>
<path d="M137.639 22.4937C138.156 22.8044 138.61 22.9996 139.001 23.0795C139.744 23.2289 140.294 23.0071 140.65 22.4142C140.858 22.0679 140.867 21.7087 140.677 21.3365C140.485 20.9692 140.106 20.5191 139.542 19.9864L138.582 19.0705C137.639 18.1685 137.045 17.4473 136.802 16.9072C136.386 15.9987 136.487 15.0298 137.105 14.0004C137.669 13.0612 138.48 12.486 139.536 12.2749C140.593 12.0638 141.782 12.3558 143.106 13.1509C144.211 13.8148 144.976 14.6746 145.401 15.7301C145.833 16.7838 145.733 17.8794 145.102 19.017L142.995 17.7518C143.336 17.0981 143.331 16.4845 142.978 15.9111C142.742 15.5304 142.37 15.1876 141.862 14.8827C141.298 14.5436 140.779 14.3867 140.305 14.4121C139.832 14.4375 139.472 14.6541 139.227 15.0621C139.002 15.4369 139 15.8165 139.221 16.201C139.36 16.4525 139.729 16.8708 140.326 17.4557L141.873 18.9755C142.551 19.6411 142.996 20.2539 143.209 20.814C143.539 21.6835 143.423 22.5855 142.861 23.52C142.286 24.4783 141.439 25.0544 140.322 25.2483C139.213 25.4404 137.989 25.1347 136.651 24.3311C135.285 23.5104 134.397 22.5542 133.988 21.4626C133.581 20.3662 133.706 19.2725 134.361 18.1814L136.453 19.4381C136.232 19.9571 136.147 20.3937 136.199 20.7477C136.296 21.3931 136.775 21.9751 137.639 22.4937Z" fill="white"/>
<path d="M158.919 25.0271L157.532 26.6917L154.719 24.3489L148.275 32.0854L146.298 30.4385L152.742 22.702L149.917 20.3485L151.303 18.6838L158.919 25.0271Z" fill="white"/>
<path d="M160.448 37.1562L158.707 35.1717L155.1 38.3352L153.453 36.4568L162.651 28.3892L166.609 32.9012C167.162 33.557 167.517 34.1214 167.674 34.5944C167.835 35.0716 167.88 35.5549 167.809 36.0444C167.751 36.4484 167.631 36.8327 167.451 37.1973C167.27 37.562 166.999 37.903 166.637 38.2204C166.2 38.6036 165.673 38.871 165.055 39.0227C164.441 39.1707 163.824 39.0675 163.205 38.7132C163.406 39.2872 163.425 39.8002 163.262 40.2523C163.107 40.7048 162.707 41.2139 162.062 41.7795L161.445 42.3213C161.024 42.6898 160.754 42.9564 160.633 43.1211C160.44 43.379 160.368 43.6487 160.416 43.9303L160.185 44.1328L158.329 42.0172C158.482 41.7802 158.61 41.5945 158.713 41.46C158.927 41.1839 159.168 40.9251 159.434 40.6838L160.278 39.9215C160.858 39.3987 161.154 38.9475 161.167 38.568C161.184 38.1926 160.944 37.722 160.448 37.1562ZM163.144 36.8564C163.654 37.0859 164.167 36.9744 164.683 36.522C165.241 36.033 165.453 35.5195 165.32 34.9813C165.245 34.6784 165.026 34.319 164.661 33.9029L162.701 31.6688L160.23 33.8362L162.14 36.0142C162.52 36.4469 162.854 36.7276 163.144 36.8564Z" fill="white"/>
<path d="M178.237 49.1348L169.591 49.6866L165.684 52.1123L164.335 49.9403L168.242 47.5145L172.497 39.8896L174.086 42.4496L170.899 47.4185L176.709 46.6737L178.237 49.1348Z" fill="white"/>
<path d="M29.5869 157.29L32.4315 154.555L35.249 157.541L32.4044 160.276L29.5869 157.29Z" fill="white"/>
<path d="M178.927 71.0629L182.683 69.8496L183.908 73.7679L180.152 74.9812L178.927 71.0629Z" fill="white"/>
</svg>
